# Blender v2.80 (sub 75) OBJ File: ''
# www.blender.org
mtllib white_pawn.mtl
o White_Pawn_mesh_White_Pawn_mesh
v -0.000001 0.000000 -0.501031
v -0.322058 0.000000 -0.383812
v -0.493421 0.000000 -0.087003
v -0.433907 -0.000000 0.250516
v -0.171364 -0.000000 0.470816
v 0.171362 -0.000000 0.470816
v 0.433905 -0.000000 0.250516
v 0.493419 0.000000 -0.087003
v 0.322056 0.000000 -0.383812
v -0.000001 0.036655 -0.511599
v -0.328850 0.036655 -0.391907
v -0.503828 0.036655 -0.088838
v -0.443059 0.036655 0.255800
v -0.174978 0.036655 0.480746
v 0.174976 0.036655 0.480746
v 0.443057 0.036655 0.255800
v 0.503826 0.036655 -0.088838
v 0.328849 0.036655 -0.391907
v -0.000001 0.202695 -0.496963
v -0.319443 0.202695 -0.380695
v -0.489414 0.202695 -0.086296
v -0.430384 0.202695 0.248482
v -0.169972 0.202695 0.466993
v 0.169971 0.202695 0.466993
v 0.430382 0.202695 0.248482
v 0.489412 0.202695 -0.086296
v 0.319441 0.202695 -0.380695
v -0.000001 0.239350 -0.496963
v -0.319443 0.239350 -0.380695
v -0.489414 0.239350 -0.086296
v -0.430384 0.239350 0.248482
v -0.169972 0.239350 0.466993
v 0.169971 0.239350 0.466993
v 0.430382 0.239350 0.248482
v 0.489412 0.239350 -0.086296
v 0.319441 0.239350 -0.380695
v 0.155951 0.221022 0.428475
v 0.394883 0.221022 0.227987
v -0.449047 0.221022 -0.079178
v -0.394885 0.221022 0.227987
v 0.449045 0.221022 -0.079178
v -0.155953 0.221022 0.428475
v -0.000001 0.221022 -0.455973
v -0.293095 0.221022 -0.349295
v 0.293093 0.221022 -0.349295
v -0.000001 0.333665 -0.459989
v -0.295676 0.333665 -0.352372
v -0.453002 0.333665 -0.079876
v -0.398364 0.333665 0.229995
v -0.157327 0.333665 0.432249
v 0.157325 0.333665 0.432249
v 0.398362 0.333665 0.229995
v 0.453000 0.333665 -0.079876
v 0.295675 0.333665 -0.352372
v -0.000001 0.454409 -0.289956
v -0.186382 0.454409 -0.222119
v -0.285553 0.454409 -0.050350
v -0.251111 0.454409 0.144979
v -0.099172 0.454409 0.272471
v 0.099170 0.454409 0.272471
v 0.251109 0.454409 0.144979
v 0.285551 0.454409 -0.050350
v 0.186380 0.454409 -0.222119
v -0.000001 0.742080 -0.156111
v -0.100348 0.742080 -0.119588
v -0.153741 0.742080 -0.027108
v -0.135198 0.742080 0.078056
v -0.053394 0.742080 0.146698
v 0.053392 0.742080 0.146698
v 0.135196 0.742080 0.078056
v 0.153739 0.742080 -0.027108
v 0.100346 0.742080 -0.119588
v -0.000001 0.943307 -0.135738
v -0.087252 0.943307 -0.103982
v -0.133678 0.943307 -0.023570
v -0.117554 0.943307 0.067870
v -0.046426 0.943307 0.127553
v 0.046425 0.943307 0.127553
v 0.117552 0.943307 0.067870
v 0.133676 0.943307 -0.023570
v 0.087250 0.943307 -0.103982
v -0.000001 0.998785 -0.124812
v -0.080229 0.998785 -0.095612
v -0.122917 0.998785 -0.021673
v -0.108092 0.998785 0.062407
v -0.042689 0.998785 0.117286
v 0.042688 0.998785 0.117286
v 0.108090 0.998785 0.062407
v 0.122915 0.998785 -0.021673
v 0.080227 0.998785 -0.095611
v -0.000001 0.808202 -0.282305
v -0.000001 0.849481 -0.278694
v -0.179142 0.849481 -0.213492
v -0.181463 0.808202 -0.216258
v 0.278016 0.808202 -0.049021
v 0.274460 0.849481 -0.048394
v 0.179141 0.849481 -0.213492
v 0.181461 0.808202 -0.216258
v -0.096555 0.808202 0.265281
v -0.095320 0.849481 0.261888
v 0.095318 0.849481 0.261888
v 0.096553 0.808202 0.265281
v -0.274462 0.849481 -0.048394
v -0.278017 0.808202 -0.049021
v 0.241356 0.849481 0.139348
v 0.244483 0.808202 0.141153
v -0.241358 0.849481 0.139348
v -0.244485 0.808202 0.141153
v -0.000001 0.900954 0.000000
v 0.255564 1.096189 0.185677
v -0.097616 1.096189 0.300434
v -0.315899 1.096189 0.000000
v -0.097616 1.096189 -0.300433
v 0.255564 1.096189 -0.185676
v 0.097614 1.412089 0.300434
v -0.255566 1.412089 0.185677
v -0.255566 1.412089 -0.185676
v 0.097614 1.412089 -0.300433
v 0.315897 1.412089 0.000000
v -0.000001 1.607325 0.000000
v -0.187908 0.552910 -0.223939
v -0.287892 0.552910 -0.050762
v 0.187907 0.552910 -0.223939
v -0.000001 0.552910 -0.292332
v 0.099983 0.552910 0.274703
v 0.253166 0.552910 0.146167
v -0.253168 0.552910 0.146167
v 0.287890 0.552910 -0.050762
v -0.099984 0.552910 0.274703
v -0.102544 0.588292 -0.122206
v 0.102542 0.588292 -0.122206
v 0.054561 0.588292 0.149909
v -0.157106 0.588292 -0.027701
v -0.000001 0.588292 -0.159528
v 0.138155 0.588292 0.079765
v -0.138157 0.588292 0.079765
v 0.157104 0.588292 -0.027701
v -0.054563 0.588292 0.149909
vn -0.6204 0.2615 -0.7394
vn 0.9505 0.2615 -0.1676
vn -0.9505 0.2615 -0.1676
vn 0.6204 0.2615 -0.7394
vn 0.3301 0.2615 0.9070
vn -0.8359 0.2615 0.4826
vn -0.0000 0.2615 -0.9652
vn 0.8359 0.2615 0.4826
vn -0.3301 0.2615 0.9070
vn -0.9814 -0.0825 -0.1731
vn 0.6406 -0.0825 -0.7634
vn 0.3409 -0.0825 0.9365
vn -0.8631 -0.0825 0.4983
vn -0.0000 -0.0825 -0.9966
vn 0.8631 -0.0825 0.4983
vn -0.3409 -0.0825 0.9365
vn -0.6406 -0.0825 -0.7634
vn 0.9814 -0.0825 -0.1731
vn -0.2762 0.9030 -0.3291
vn 0.4231 0.9030 -0.0746
vn -0.4231 0.9030 -0.0746
vn 0.2762 0.9030 -0.3291
vn 0.1470 0.9030 0.4037
vn -0.3721 0.9030 0.2148
vn 0.0000 0.9030 -0.4297
vn 0.3721 0.9030 0.2148
vn -0.1470 0.9030 0.4037
vn -0.1470 -0.9030 0.4037
vn 0.3721 -0.9030 0.2148
vn 0.0000 -0.9030 -0.4297
vn -0.3721 -0.9030 0.2148
vn 0.1470 -0.9030 0.4037
vn 0.2762 -0.9030 -0.3291
vn -0.4231 -0.9030 -0.0746
vn 0.4231 -0.9030 -0.0746
vn -0.2762 -0.9030 -0.3291
vn 0.0000 -0.3457 -0.9384
vn 0.8126 -0.3457 0.4692
vn -0.3209 -0.3457 0.8818
vn -0.6032 -0.3457 -0.7188
vn 0.9241 -0.3457 -0.1629
vn -0.9241 -0.3457 -0.1629
vn 0.6032 -0.3457 -0.7188
vn 0.3209 -0.3457 0.8818
vn -0.8126 -0.3457 0.4692
vn 0.5937 -0.7978 -0.1047
vn -0.5937 -0.7978 -0.1047
vn 0.3875 -0.7978 -0.4619
vn 0.2062 -0.7978 0.5665
vn -0.5221 -0.7978 0.3015
vn 0.0000 -0.7978 -0.6029
vn 0.5221 -0.7978 0.3015
vn -0.2062 -0.7978 0.5665
vn -0.3875 -0.7978 -0.4619
vn 0.8658 -0.0209 0.4999
vn -0.3419 -0.0209 0.9395
vn -0.6426 -0.0209 -0.7659
vn 0.9846 -0.0209 -0.1736
vn -0.9846 -0.0209 -0.1736
vn 0.6426 -0.0209 -0.7659
vn 0.3419 -0.0209 0.9395
vn -0.8658 -0.0209 0.4999
vn 0.0000 -0.0209 -0.9998
vn 0.1958 -0.8198 0.5381
vn -0.4959 -0.8198 0.2863
vn 0.0000 -0.8198 -0.5726
vn 0.4959 -0.8198 0.2863
vn -0.1958 -0.8198 0.5381
vn -0.3681 -0.8198 -0.4386
vn 0.5639 -0.8198 -0.0994
vn -0.5639 -0.8198 -0.0994
vn 0.3681 -0.8198 -0.4386
vn -0.9684 -0.1820 -0.1707
vn 0.6321 -0.1820 -0.7533
vn 0.3363 -0.1820 0.9240
vn -0.8516 -0.1820 0.4917
vn 0.0000 -0.1820 -0.9833
vn 0.8516 -0.1820 0.4917
vn -0.3363 -0.1820 0.9240
vn -0.6321 -0.1820 -0.7533
vn 0.9684 -0.1820 -0.1707
vn 0.3130 0.8734 -0.3731
vn 0.6406 -0.0819 -0.7635
vn -0.4796 0.8734 -0.0846
vn -0.9815 -0.0819 -0.1731
vn 0.4796 0.8734 -0.0846
vn 0.9815 -0.0819 -0.1731
vn -0.3130 0.8734 -0.3731
vn -0.6406 -0.0819 -0.7635
vn -0.1666 0.8734 0.4576
vn -0.3409 -0.0819 0.9365
vn 0.4218 0.8734 0.2435
vn 0.8631 -0.0819 0.4983
vn 0.0000 0.8734 -0.4870
vn 0.0000 -0.0819 -0.9966
vn -0.4218 0.8734 0.2435
vn -0.8631 -0.0819 0.4983
vn 0.1666 0.8734 0.4576
vn 0.3409 -0.0819 0.9365
vn 0.1876 -0.7947 0.5774
vn 0.6071 -0.7947 0.0000
vn -0.4911 -0.7947 0.3568
vn -0.4911 -0.7947 -0.3568
vn 0.1876 -0.7947 -0.5774
vn 0.9822 -0.1876 0.0000
vn 0.3035 -0.1876 0.9342
vn -0.7946 -0.1876 0.5774
vn -0.7946 -0.1876 -0.5774
vn 0.3035 -0.1876 -0.9342
vn 0.7946 0.1876 0.5774
vn -0.3035 0.1876 0.9342
vn -0.9822 0.1876 0.0000
vn -0.3035 0.1876 -0.9342
vn 0.7946 0.1876 -0.5774
vn 0.4911 0.7947 0.3568
vn -0.1876 0.7947 0.5774
vn -0.6071 0.7947 0.0000
vn -0.1876 0.7947 -0.5774
vn 0.4911 0.7947 -0.3568
vn 0.0000 0.0227 -0.9997
vn -0.8658 0.0227 0.4999
vn 0.3419 0.0227 0.9395
vn 0.6426 0.0227 -0.7658
vn -0.9846 0.0227 -0.1736
vn 0.9846 0.0227 -0.1736
vn -0.6426 0.0227 -0.7658
vn -0.3419 0.0227 0.9395
vn 0.8658 0.0227 0.4999
vn 0.0000 -0.9621 -0.2728
vn -0.2362 -0.9621 0.1364
vn 0.0933 -0.9621 0.2563
vn 0.1753 -0.9621 -0.2090
vn -0.2686 -0.9621 -0.0474
vn 0.2686 -0.9621 -0.0474
vn -0.1753 -0.9621 -0.2090
vn -0.0933 -0.9621 0.2563
vn 0.2362 -0.9621 0.1364
vn 0.0000 1.0000 0.0000
usemtl Material_003.001
s off
f 6//1 16//1 7//1
f 3//2 13//2 4//2
f 8//3 16//3 17//3
f 4//4 14//4 5//4
f 1//5 11//5 2//5
f 8//6 18//6 9//6
f 6//7 14//7 15//7
f 2//8 12//8 3//8
f 1//9 18//9 10//9
f 16//10 26//10 17//10
f 13//11 23//11 14//11
f 10//12 20//12 11//12
f 17//13 27//13 18//13
f 14//14 24//14 15//14
f 12//15 20//15 21//15
f 18//16 19//16 10//16
f 15//17 25//17 16//17
f 12//18 22//18 13//18
f 37//19 34//19 38//19
f 40//20 30//20 31//20
f 41//21 34//21 35//21
f 42//22 31//22 32//22
f 43//23 29//23 44//23
f 45//24 35//24 36//24
f 37//25 32//25 33//25
f 44//26 30//26 39//26
f 43//27 36//27 28//27
f 27//28 43//28 19//28
f 20//29 39//29 21//29
f 23//30 37//30 24//30
f 26//31 45//31 27//31
f 19//32 44//32 20//32
f 22//33 42//33 23//33
f 25//34 41//34 26//34
f 21//35 40//35 22//35
f 25//36 37//36 38//36
f 32//37 51//37 33//37
f 30//38 47//38 48//38
f 28//39 54//39 46//39
f 34//40 51//40 52//40
f 30//41 49//41 31//41
f 35//42 52//42 53//42
f 31//43 50//43 32//43
f 28//44 47//44 29//44
f 35//45 54//45 36//45
f 49//46 57//46 58//46
f 52//47 62//47 53//47
f 50//48 58//48 59//48
f 47//49 55//49 56//49
f 53//50 63//50 54//50
f 50//51 60//51 51//51
f 47//52 57//52 48//52
f 54//53 55//53 46//53
f 51//54 61//54 52//54
f 130//55 66//55 133//55
f 131//56 64//56 134//56
f 135//57 69//57 70//57
f 133//58 67//58 136//58
f 135//59 71//59 137//59
f 136//60 68//60 138//60
f 134//61 65//61 130//61
f 137//62 72//62 131//62
f 132//63 68//63 69//63
f 93//64 73//64 74//64
f 96//65 81//65 97//65
f 101//66 77//66 78//66
f 103//67 74//67 75//67
f 97//68 73//68 92//68
f 105//69 78//69 79//69
f 107//70 75//70 76//70
f 96//71 79//71 80//71
f 107//72 77//72 100//72
f 80//73 88//73 89//73
f 76//74 86//74 77//74
f 73//75 83//75 74//75
f 81//76 89//76 90//76
f 77//77 87//77 78//77
f 74//78 84//78 75//78
f 81//79 82//79 73//79
f 78//80 88//80 79//80
f 75//81 85//81 76//81
f 67//82 99//82 68//82
f 108//83 100//83 99//83
f 70//84 95//84 71//84
f 106//85 96//85 95//85
f 66//86 108//86 67//86
f 104//87 107//87 108//87
f 69//88 106//88 70//88
f 106//89 101//89 105//89
f 64//90 98//90 91//90
f 98//91 92//91 91//91
f 66//92 94//92 104//92
f 94//93 103//93 104//93
f 69//94 99//94 102//94
f 102//95 100//95 101//95
f 71//96 98//96 72//96
f 98//97 96//97 97//97
f 65//98 91//98 94//98
f 91//99 93//99 94//99
f 109//100 110//100 111//100
f 110//101 109//101 114//101
f 109//102 111//102 112//102
f 109//103 112//103 113//103
f 109//104 113//104 114//104
f 110//105 114//105 119//105
f 111//106 110//106 115//106
f 112//107 111//107 116//107
f 113//108 112//108 117//108
f 114//109 113//109 118//109
f 110//110 119//110 115//110
f 111//111 115//111 116//111
f 112//112 116//112 117//112
f 113//113 117//113 118//113
f 114//114 118//114 119//114
f 115//115 119//115 120//115
f 116//116 115//116 120//116
f 117//117 116//117 120//117
f 118//118 117//118 120//118
f 119//119 118//119 120//119
f 59//120 125//120 60//120
f 63//121 128//121 123//121
f 55//122 121//122 56//122
f 58//123 129//123 59//123
f 62//124 126//124 128//124
f 57//125 127//125 58//125
f 60//126 126//126 61//126
f 55//127 123//127 124//127
f 56//128 122//128 57//128
f 129//129 132//129 125//129
f 128//130 131//130 123//130
f 124//131 130//131 121//131
f 127//132 138//132 129//132
f 126//133 137//133 128//133
f 127//134 133//134 136//134
f 126//135 132//135 135//135
f 123//136 134//136 124//136
f 122//137 130//137 133//137
f 8//138 9//138 3//138
f 6//1 15//1 16//1
f 3//2 12//2 13//2
f 8//3 7//3 16//3
f 4//4 13//4 14//4
f 1//5 10//5 11//5
f 8//6 17//6 18//6
f 6//7 5//7 14//7
f 2//8 11//8 12//8
f 1//9 9//9 18//9
f 16//10 25//10 26//10
f 13//11 22//11 23//11
f 10//12 19//12 20//12
f 17//13 26//13 27//13
f 14//14 23//14 24//14
f 12//15 11//15 20//15
f 18//16 27//16 19//16
f 15//17 24//17 25//17
f 12//18 21//18 22//18
f 37//19 33//19 34//19
f 40//20 39//20 30//20
f 41//21 38//21 34//21
f 42//22 40//22 31//22
f 43//23 28//23 29//23
f 45//24 41//24 35//24
f 37//25 42//25 32//25
f 44//26 29//26 30//26
f 43//27 45//27 36//27
f 27//28 45//28 43//28
f 20//29 44//29 39//29
f 23//30 42//30 37//30
f 26//31 41//31 45//31
f 19//32 43//32 44//32
f 22//33 40//33 42//33
f 25//34 38//34 41//34
f 21//35 39//35 40//35
f 25//36 24//36 37//36
f 32//37 50//37 51//37
f 30//38 29//38 47//38
f 28//39 36//39 54//39
f 34//40 33//40 51//40
f 30//41 48//41 49//41
f 35//42 34//42 52//42
f 31//43 49//43 50//43
f 28//44 46//44 47//44
f 35//45 53//45 54//45
f 49//46 48//46 57//46
f 52//47 61//47 62//47
f 50//48 49//48 58//48
f 47//49 46//49 55//49
f 53//50 62//50 63//50
f 50//51 59//51 60//51
f 47//52 56//52 57//52
f 54//53 63//53 55//53
f 51//54 60//54 61//54
f 130//55 65//55 66//55
f 131//56 72//56 64//56
f 135//57 132//57 69//57
f 133//58 66//58 67//58
f 135//59 70//59 71//59
f 136//60 67//60 68//60
f 134//61 64//61 65//61
f 137//62 71//62 72//62
f 132//63 138//63 68//63
f 93//64 92//64 73//64
f 96//65 80//65 81//65
f 101//66 100//66 77//66
f 103//67 93//67 74//67
f 97//68 81//68 73//68
f 105//69 101//69 78//69
f 107//70 103//70 75//70
f 96//71 105//71 79//71
f 107//72 76//72 77//72
f 80//73 79//73 88//73
f 76//74 85//74 86//74
f 73//75 82//75 83//75
f 81//76 80//76 89//76
f 77//77 86//77 87//77
f 74//78 83//78 84//78
f 81//79 90//79 82//79
f 78//80 87//80 88//80
f 75//81 84//81 85//81
f 67//82 108//82 99//82
f 108//83 107//83 100//83
f 70//84 106//84 95//84
f 106//85 105//85 96//85
f 66//86 104//86 108//86
f 104//87 103//87 107//87
f 69//88 102//88 106//88
f 106//89 102//89 101//89
f 64//90 72//90 98//90
f 98//91 97//91 92//91
f 66//92 65//92 94//92
f 94//93 93//93 103//93
f 69//94 68//94 99//94
f 102//95 99//95 100//95
f 71//96 95//96 98//96
f 98//97 95//97 96//97
f 65//98 64//98 91//98
f 91//99 92//99 93//99
f 59//120 129//120 125//120
f 63//121 62//121 128//121
f 55//122 124//122 121//122
f 58//123 127//123 129//123
f 62//124 61//124 126//124
f 57//125 122//125 127//125
f 60//126 125//126 126//126
f 55//127 63//127 123//127
f 56//128 121//128 122//128
f 129//129 138//129 132//129
f 128//130 137//130 131//130
f 124//131 134//131 130//131
f 127//132 136//132 138//132
f 126//133 135//133 137//133
f 127//134 122//134 133//134
f 126//135 125//135 132//135
f 123//136 131//136 134//136
f 122//137 121//137 130//137
f 1//138 2//138 9//138
f 2//138 3//138 9//138
f 3//138 4//138 7//138
f 4//138 5//138 7//138
f 5//138 6//138 7//138
f 7//138 8//138 3//138
