# Blender v2.80 (sub 75) OBJ File: ''
# www.blender.org
mtllib white_rook.mtl
o White_Rook_mesh_White_Rook_mesh
v 0.000000 -0.172231 -0.510905
v -0.328403 -0.172231 -0.391376
v -0.503143 -0.172231 -0.088718
v -0.442456 -0.172231 0.255452
v -0.174739 -0.172231 0.480094
v 0.174740 -0.172231 0.480093
v 0.442457 -0.172231 0.255452
v 0.503143 -0.172231 -0.088718
v 0.328403 -0.172231 -0.391376
v 0.000000 -0.135576 -0.540128
v -0.347188 -0.135576 -0.413762
v -0.531922 -0.135576 -0.093792
v -0.467765 -0.135576 0.270064
v -0.184735 -0.135576 0.507555
v 0.184735 -0.135576 0.507555
v 0.467765 -0.135576 0.270064
v 0.531923 -0.135576 -0.093792
v 0.347188 -0.135576 -0.413762
v 0.000000 0.030464 -0.542680
v -0.348828 0.030464 -0.415717
v -0.534435 0.030464 -0.094235
v -0.469975 0.030463 0.271340
v -0.185607 0.030464 0.509952
v 0.185608 0.030464 0.509952
v 0.469975 0.030463 0.271340
v 0.534436 0.030464 -0.094235
v 0.348828 0.030464 -0.415717
v 0.000000 0.067119 -0.542680
v -0.348828 0.067119 -0.415717
v -0.534435 0.067119 -0.094235
v -0.469975 0.067119 0.271340
v -0.185607 0.067119 0.509952
v 0.185608 0.067119 0.509952
v 0.469975 0.067119 0.271340
v 0.534436 0.067119 -0.094235
v 0.348828 0.067119 -0.415717
v 0.170299 0.048791 0.467891
v 0.431211 0.048791 0.248959
v -0.490354 0.048791 -0.086463
v -0.431210 0.048791 0.248959
v 0.490355 0.048791 -0.086463
v -0.170298 0.048791 0.467891
v 0.000000 0.048791 -0.497919
v -0.320056 0.048791 -0.381428
v 0.320056 0.048791 -0.381428
v 0.000000 0.236635 -0.431742
v -0.277519 0.236635 -0.330734
v -0.425183 0.236635 -0.074971
v -0.373900 0.236635 0.215871
v -0.147664 0.236635 0.405705
v 0.147665 0.236635 0.405705
v 0.373900 0.236635 0.215871
v 0.425183 0.236635 -0.074971
v 0.277519 0.236635 -0.330734
v 0.000000 0.430906 -0.403349
v -0.259268 0.430906 -0.308983
v -0.397221 0.430906 -0.070041
v -0.349311 0.430906 0.201675
v -0.137953 0.430906 0.379024
v 0.137954 0.430906 0.379024
v 0.349311 0.430906 0.201675
v 0.397222 0.430906 -0.070041
v 0.259268 0.430906 -0.308983
v 0.000000 0.465373 -0.347672
v -0.223479 0.465373 -0.266332
v -0.342390 0.465373 -0.060373
v -0.301092 0.465373 0.173836
v -0.118911 0.465373 0.326705
v 0.118911 0.465373 0.326705
v 0.301093 0.465373 0.173836
v 0.342390 0.465373 -0.060373
v 0.223479 0.465373 -0.266332
v 0.000000 0.982383 -0.265303
v -0.170534 0.982383 -0.203234
v -0.261273 0.982383 -0.046069
v -0.229759 0.982383 0.132652
v -0.090739 0.982383 0.249304
v 0.090739 0.982383 0.249304
v 0.229760 0.982383 0.132652
v 0.261273 0.982383 -0.046069
v 0.170534 0.982383 -0.203234
v 0.000000 1.214254 -0.294982
v -0.189611 1.214254 -0.225969
v -0.290500 1.214254 -0.051223
v -0.255462 1.214254 0.147491
v -0.100890 1.214254 0.277192
v 0.100890 1.214254 0.277192
v 0.255462 1.214254 0.147491
v 0.290501 1.214254 -0.051223
v 0.189611 1.214254 -0.225969
v 0.000000 1.223654 -0.319442
v -0.205333 1.223654 -0.244707
v -0.314589 1.223654 -0.055471
v -0.276645 1.223654 0.159721
v -0.109256 1.223654 0.300178
v 0.109256 1.223654 0.300178
v 0.276645 1.223654 0.159721
v 0.314589 1.223654 -0.055471
v 0.205334 1.223654 -0.244707
v 0.000000 1.283189 -0.334813
v -0.215214 1.283189 -0.256482
v -0.329727 1.283189 -0.058140
v -0.289957 1.283189 0.167407
v -0.114513 1.283189 0.314622
v 0.114513 1.283189 0.314622
v 0.289957 1.283189 0.167407
v 0.329727 1.283189 -0.058140
v 0.215214 1.283189 -0.256482
v 0.000000 1.317656 -0.393294
v -0.252804 1.317656 -0.301280
v -0.387318 1.317656 -0.068295
v -0.340602 1.317656 0.196647
v -0.134514 1.317656 0.369575
v 0.134515 1.317656 0.369575
v 0.340603 1.317656 0.196647
v 0.387319 1.317656 -0.068295
v 0.252805 1.317656 -0.301280
v 0.000000 1.352123 -0.405058
v -0.260366 1.352123 -0.310292
v -0.398904 1.352123 -0.070337
v -0.350790 1.352123 0.202529
v -0.138538 1.352123 0.380630
v 0.138538 1.352123 0.380630
v 0.350791 1.352123 0.202529
v 0.398904 1.352123 -0.070338
v 0.260366 1.352123 -0.310292
v 0.000000 1.380324 -0.390059
v -0.250725 1.380324 -0.298803
v -0.384133 1.380324 -0.067733
v -0.337801 1.380324 0.195030
v -0.133408 1.380324 0.366536
v 0.133408 1.380324 0.366536
v 0.337802 1.380324 0.195030
v 0.384134 1.380324 -0.067733
v 0.250726 1.380324 -0.298803
v 0.000000 1.402257 -0.433750
v -0.278809 1.402257 -0.332272
v -0.427160 1.402257 -0.075320
v -0.375638 1.402257 0.216875
v -0.148351 1.402257 0.407592
v 0.148351 1.402257 0.407592
v 0.375639 1.402257 0.216875
v 0.427161 1.402257 -0.075320
v 0.278809 1.402257 -0.332272
v 0.000000 1.679286 -0.433750
v -0.278809 1.679286 -0.332272
v -0.427160 1.679286 -0.075320
v -0.375638 1.679286 0.216875
v -0.148351 1.679286 0.407592
v 0.148351 1.679286 0.407592
v 0.375639 1.679286 0.216875
v 0.427161 1.679286 -0.075320
v 0.278809 1.679286 -0.332272
v 0.000000 1.679286 -0.363953
v -0.233945 1.679286 -0.278804
v -0.358424 1.679286 -0.063200
v -0.315192 1.679286 0.181977
v -0.124479 1.679286 0.342004
v 0.124480 1.679286 0.342004
v 0.315193 1.679286 0.181976
v 0.358424 1.679286 -0.063200
v 0.233945 1.679286 -0.278804
v 0.000000 1.537438 -0.363953
v -0.233945 1.537438 -0.278804
v -0.358424 1.537438 -0.063200
v -0.315192 1.537438 0.181977
v -0.124479 1.537438 0.342004
v 0.124480 1.537438 0.342004
v 0.315193 1.537438 0.181976
v 0.358424 1.537438 -0.063200
v 0.233945 1.537438 -0.278804
v -0.375638 1.523262 0.216875
v -0.148351 1.523262 0.407592
v 0.000000 1.523262 -0.433750
v -0.278809 1.523262 -0.332272
v 0.427161 1.523262 -0.075320
v 0.278809 1.523262 -0.332272
v 0.148351 1.523262 0.407592
v -0.427160 1.523262 -0.075320
v 0.375639 1.523262 0.216875
vn -0.5144 0.5996 -0.6131
vn 0.7882 0.5996 -0.1390
vn -0.7882 0.5996 -0.1390
vn 0.5144 0.5996 -0.6131
vn 0.2737 0.5996 0.7521
vn -0.6931 0.5996 0.4002
vn 0.0000 0.5996 -0.8003
vn 0.6931 0.5996 0.4002
vn -0.2737 0.5996 0.7521
vn -0.9847 0.0144 -0.1736
vn 0.6427 0.0144 -0.7660
vn 0.3420 0.0144 0.9396
vn -0.8659 0.0144 0.4999
vn 0.0000 0.0144 -0.9999
vn 0.8659 0.0144 0.4999
vn -0.3420 0.0144 0.9396
vn -0.6427 0.0144 -0.7660
vn 0.9847 0.0144 -0.1736
vn -0.2568 0.9168 -0.3060
vn 0.3934 0.9168 -0.0694
vn -0.3934 0.9168 -0.0694
vn 0.2568 0.9168 -0.3060
vn 0.1366 0.9168 0.3754
vn -0.3459 0.9168 0.1997
vn 0.0000 0.9168 -0.3995
vn 0.3459 0.9168 0.1997
vn -0.1366 0.9168 0.3754
vn -0.1366 -0.9168 0.3754
vn 0.3459 -0.9168 0.1997
vn 0.0000 -0.9168 -0.3995
vn -0.3459 -0.9168 0.1997
vn 0.1366 -0.9168 0.3754
vn 0.2568 -0.9168 -0.3060
vn -0.3934 -0.9168 -0.0694
vn 0.3934 -0.9168 -0.0694
vn -0.2568 -0.9168 -0.3060
vn -0.0000 -0.5238 -0.8518
vn 0.7377 -0.5238 0.4259
vn -0.2913 -0.5238 0.8004
vn -0.5475 -0.5238 -0.6525
vn 0.8389 -0.5238 -0.1479
vn -0.8389 -0.5238 -0.1479
vn 0.5475 -0.5238 -0.6525
vn 0.2913 -0.5238 0.8004
vn -0.7377 -0.5238 0.4259
vn -0.9756 -0.1361 -0.1720
vn 0.6368 -0.1361 -0.7589
vn 0.3388 -0.1361 0.9310
vn -0.8580 -0.1361 0.4953
vn 0.0000 -0.1361 -0.9907
vn 0.8580 -0.1361 0.4954
vn -0.3388 -0.1361 0.9310
vn -0.6368 -0.1361 -0.7589
vn 0.9756 -0.1361 -0.1720
vn -0.3536 -0.8351 -0.4214
vn 0.5418 -0.8351 -0.0955
vn -0.5418 -0.8351 -0.0955
vn 0.3536 -0.8351 -0.4214
vn 0.1882 -0.8351 0.5170
vn -0.4764 -0.8351 0.2751
vn 0.0000 -0.8351 -0.5501
vn 0.4764 -0.8351 0.2751
vn -0.1882 -0.8351 0.5170
vn 0.0000 -0.1481 -0.9890
vn 0.8565 -0.1481 0.4945
vn -0.3383 -0.1481 0.9293
vn -0.6357 -0.1481 -0.7576
vn 0.9740 -0.1481 -0.1717
vn -0.9740 -0.1481 -0.1717
vn 0.6357 -0.1481 -0.7576
vn 0.3383 -0.1481 0.9293
vn -0.8565 -0.1481 0.4945
vn 0.6382 0.1194 -0.7606
vn 0.3396 0.1194 0.9330
vn -0.8598 0.1194 0.4964
vn 0.0000 0.1194 -0.9928
vn 0.8598 0.1194 0.4964
vn -0.3396 0.1194 0.9330
vn -0.6382 0.1194 -0.7606
vn 0.9778 0.1194 -0.1724
vn -0.9778 0.1194 -0.1724
vn 0.3728 0.9256 -0.0657
vn -0.3728 0.9256 -0.0657
vn 0.2433 0.9256 -0.2900
vn 0.1295 0.9256 0.3557
vn -0.3278 0.9256 0.1893
vn 0.0000 0.9256 -0.3785
vn 0.3278 0.9256 0.1893
vn -0.1295 0.9256 0.3557
vn -0.2433 0.9256 -0.2900
vn 0.8416 0.2358 0.4859
vn -0.3324 0.2358 0.9132
vn -0.6247 0.2358 -0.7444
vn 0.9570 0.2358 -0.1688
vn -0.9570 0.2358 -0.1688
vn 0.6247 0.2358 -0.7444
vn 0.3324 0.2358 0.9132
vn -0.8416 0.2358 0.4859
vn 0.0000 0.2358 -0.9718
vn 0.1817 0.8472 0.4993
vn -0.4602 0.8472 0.2657
vn 0.0000 0.8472 -0.5313
vn 0.4602 0.8472 0.2657
vn -0.1817 0.8472 0.4993
vn -0.3415 0.8472 -0.4070
vn 0.5233 0.8472 -0.0923
vn -0.5233 0.8472 -0.0923
vn 0.3415 0.8472 -0.4070
vn -0.9378 0.3054 -0.1654
vn 0.6121 0.3054 -0.7294
vn 0.3257 0.3054 0.8948
vn -0.8246 0.3054 0.4761
vn 0.0000 0.3054 -0.9522
vn 0.8246 0.3054 0.4761
vn -0.3257 0.3054 0.8948
vn -0.6121 0.3054 -0.7294
vn 0.9378 0.3054 -0.1654
vn -0.5750 -0.4470 -0.6852
vn 0.8809 -0.4470 -0.1553
vn -0.8809 -0.4470 -0.1553
vn 0.5750 -0.4470 -0.6852
vn 0.3059 -0.4470 0.8406
vn -0.7747 -0.4470 0.4473
vn 0.0000 -0.4470 -0.8945
vn 0.7747 -0.4470 0.4473
vn -0.3059 -0.4470 0.8406
vn 0.0000 0.8820 -0.4712
vn 0.4081 0.8820 0.2356
vn -0.1612 0.8820 0.4428
vn -0.3029 0.8820 -0.3610
vn 0.4640 0.8820 -0.0818
vn -0.4640 0.8820 -0.0818
vn 0.3029 0.8820 -0.3610
vn 0.1612 0.8820 0.4428
vn -0.4081 0.8820 0.2356
vn 0.6428 0.0000 -0.7660
vn 0.3420 0.0000 0.9397
vn -0.3420 0.0000 0.9397
vn -0.6428 0.0000 -0.7660
vn 0.9848 0.0000 -0.1736
vn -0.9848 -0.0000 -0.1736
vn -0.0000 1.0000 0.0000
vn -0.3420 0.0000 -0.9397
vn 0.0000 -1.0000 -0.0000
vn 0.3420 0.0000 -0.9397
vn 0.6428 0.0000 0.7660
vn -0.9848 0.0000 0.1736
vn 0.9848 -0.0000 0.1736
vn -0.6428 0.0000 0.7660
vn 0.8660 -0.0000 0.5000
vn 0.0000 0.0000 -1.0000
vn -0.8660 0.0000 0.5000
vn -0.1830 -0.9774 0.1056
vn 0.1736 0.0000 0.9848
vn -0.7660 0.0000 -0.6428
vn 0.7660 0.0000 -0.6428
vn 0.1830 -0.9774 0.1056
vn -0.1736 -0.0000 0.9848
vn 0.9397 0.0000 -0.3420
vn 0.0000 -0.9774 -0.2113
vn -0.9397 0.0000 -0.3420
vn -0.8580 -0.1361 0.4954
vn 0.8580 -0.1361 0.4953
usemtl Material_003
s off
f 7//1 15//1 16//1
f 3//2 13//2 4//2
f 7//3 17//3 8//3
f 5//4 13//4 14//4
f 2//5 10//5 11//5
f 8//6 18//6 9//6
f 5//7 15//7 6//7
f 2//8 12//8 3//8
f 9//9 10//9 1//9
f 17//10 25//10 26//10
f 14//11 22//11 23//11
f 10//12 20//12 11//12
f 17//13 27//13 18//13
f 14//14 24//14 15//14
f 12//15 20//15 21//15
f 18//16 19//16 10//16
f 15//17 25//17 16//17
f 12//18 22//18 13//18
f 38//19 33//19 34//19
f 39//20 31//20 40//20
f 38//21 35//21 41//21
f 40//22 32//22 42//22
f 43//23 29//23 44//23
f 41//24 36//24 45//24
f 42//25 33//25 37//25
f 44//26 30//26 39//26
f 45//27 28//27 43//27
f 27//28 43//28 19//28
f 21//29 44//29 39//29
f 24//30 42//30 37//30
f 27//31 41//31 45//31
f 20//32 43//32 44//32
f 22//33 42//33 23//33
f 25//34 41//34 26//34
f 22//35 39//35 40//35
f 24//36 38//36 25//36
f 32//37 51//37 33//37
f 29//38 48//38 30//38
f 36//39 46//39 28//39
f 33//40 52//40 34//40
f 30//41 49//41 31//41
f 34//42 53//42 35//42
f 31//43 50//43 32//43
f 29//44 46//44 47//44
f 36//45 53//45 54//45
f 53//46 61//46 62//46
f 49//47 59//47 50//47
f 46//48 56//48 47//48
f 54//49 62//49 63//49
f 50//50 60//50 51//50
f 47//51 57//51 48//51
f 54//52 55//52 46//52
f 52//53 60//53 61//53
f 48//54 58//54 49//54
f 60//55 70//55 61//55
f 57//56 67//56 58//56
f 61//57 71//57 62//57
f 58//58 68//58 59//58
f 55//59 65//59 56//59
f 62//60 72//60 63//60
f 59//61 69//61 60//61
f 56//62 66//62 57//62
f 63//63 64//63 55//63
f 68//64 78//64 69//64
f 65//65 75//65 66//65
f 72//66 73//66 64//66
f 69//67 79//67 70//67
f 66//68 76//68 67//68
f 70//69 80//69 71//69
f 67//70 77//70 68//70
f 64//71 74//71 65//71
f 71//72 81//72 72//72
f 76//73 86//73 77//73
f 74//74 82//74 83//74
f 80//75 90//75 81//75
f 77//76 87//76 78//76
f 74//77 84//77 75//77
f 81//78 82//78 73//78
f 79//79 87//79 88//79
f 75//80 85//80 76//80
f 79//81 89//81 80//81
f 85//82 93//82 94//82
f 88//83 98//83 89//83
f 85//84 95//84 86//84
f 83//85 91//85 92//85
f 90//86 98//86 99//86
f 87//87 95//87 96//87
f 83//88 93//88 84//88
f 90//89 91//89 82//89
f 87//90 97//90 88//90
f 92//91 102//91 93//91
f 99//92 100//92 91//92
f 96//93 106//93 97//93
f 94//94 102//94 103//94
f 97//95 107//95 98//95
f 95//96 103//96 104//96
f 92//97 100//97 101//97
f 98//98 108//98 99//98
f 95//99 105//99 96//99
f 101//100 109//100 110//100
f 107//101 117//101 108//101
f 105//102 113//102 114//102
f 102//103 110//103 111//103
f 100//104 117//104 109//104
f 106//105 114//105 115//105
f 103//106 111//106 112//106
f 106//107 116//107 107//107
f 103//108 113//108 104//108
f 116//109 124//109 125//109
f 112//110 122//110 113//110
f 109//111 119//111 110//111
f 116//112 126//112 117//112
f 113//113 123//113 114//113
f 111//114 119//114 120//114
f 117//115 118//115 109//115
f 115//116 123//116 124//116
f 111//117 121//117 112//117
f 124//118 132//118 133//118
f 121//119 129//119 130//119
f 124//120 134//120 125//120
f 121//121 131//121 122//121
f 118//122 128//122 119//122
f 126//123 134//123 135//123
f 122//124 132//124 123//124
f 119//125 129//125 120//125
f 118//126 135//126 127//126
f 131//127 141//127 132//127
f 128//128 138//128 129//128
f 127//129 144//129 136//129
f 132//130 142//130 133//130
f 129//131 139//131 130//131
f 133//132 143//132 134//132
f 131//133 139//133 140//133
f 128//134 136//134 137//134
f 134//135 144//135 135//135
f 172//136 149//136 173//136
f 174//137 146//137 175//137
f 177//138 145//138 174//138
f 178//139 151//139 180//139
f 179//140 148//140 172//140
f 180//141 152//141 176//141
f 3//142 7//142 9//142
f 154//143 164//143 155//143
f 153//144 154//144 145//144
f 151//144 159//144 160//144
f 147//144 157//144 148//144
f 152//144 160//144 161//144
f 148//144 158//144 149//144
f 146//144 154//144 155//144
f 170//144 168//144 166//144
f 162//145 163//145 154//145
f 159//146 169//146 160//146
f 156//147 166//147 157//147
f 160//148 170//148 161//148
f 157//149 167//149 158//149
f 142//141 176//141 143//141
f 138//140 172//140 139//140
f 141//139 180//139 142//139
f 144//138 174//138 136//138
f 137//150 179//150 138//150
f 140//151 178//151 141//151
f 143//152 177//152 144//152
f 136//137 175//137 137//137
f 139//136 173//136 140//136
f 177//153 170//153 171//153
f 152//154 170//154 176//154
f 153//155 171//155 162//155
f 146//156 164//156 175//156
f 179//157 164//157 165//157
f 147//158 165//158 156//158
f 150//159 168//159 159//159
f 178//160 167//160 168//160
f 149//161 167//161 173//161
f 7//1 6//1 15//1
f 3//2 12//2 13//2
f 7//3 16//3 17//3
f 5//4 4//4 13//4
f 2//5 1//5 10//5
f 8//6 17//6 18//6
f 5//7 14//7 15//7
f 2//8 11//8 12//8
f 9//9 18//9 10//9
f 17//10 16//10 25//10
f 14//11 13//11 22//11
f 10//12 19//12 20//12
f 17//13 26//13 27//13
f 14//14 23//14 24//14
f 12//15 11//15 20//15
f 18//16 27//16 19//16
f 15//17 24//17 25//17
f 12//18 21//18 22//18
f 38//19 37//19 33//19
f 39//20 30//20 31//20
f 38//21 34//21 35//21
f 40//22 31//22 32//22
f 43//23 28//23 29//23
f 41//24 35//24 36//24
f 42//25 32//25 33//25
f 44//26 29//26 30//26
f 45//27 36//27 28//27
f 27//28 45//28 43//28
f 21//29 20//29 44//29
f 24//30 23//30 42//30
f 27//31 26//31 41//31
f 20//32 19//32 43//32
f 22//33 40//33 42//33
f 25//34 38//34 41//34
f 22//35 21//35 39//35
f 24//36 37//36 38//36
f 32//37 50//37 51//37
f 29//38 47//38 48//38
f 36//39 54//39 46//39
f 33//40 51//40 52//40
f 30//41 48//41 49//41
f 34//42 52//42 53//42
f 31//43 49//43 50//43
f 29//44 28//44 46//44
f 36//45 35//45 53//45
f 53//46 52//46 61//46
f 49//47 58//47 59//47
f 46//48 55//48 56//48
f 54//162 53//162 62//162
f 50//50 59//50 60//50
f 47//163 56//163 57//163
f 54//52 63//52 55//52
f 52//53 51//53 60//53
f 48//54 57//54 58//54
f 60//55 69//55 70//55
f 57//56 66//56 67//56
f 61//57 70//57 71//57
f 58//58 67//58 68//58
f 55//59 64//59 65//59
f 62//60 71//60 72//60
f 59//61 68//61 69//61
f 56//62 65//62 66//62
f 63//63 72//63 64//63
f 68//64 77//64 78//64
f 65//65 74//65 75//65
f 72//66 81//66 73//66
f 69//67 78//67 79//67
f 66//68 75//68 76//68
f 70//69 79//69 80//69
f 67//70 76//70 77//70
f 64//71 73//71 74//71
f 71//72 80//72 81//72
f 76//73 85//73 86//73
f 74//74 73//74 82//74
f 80//75 89//75 90//75
f 77//76 86//76 87//76
f 74//77 83//77 84//77
f 81//78 90//78 82//78
f 79//79 78//79 87//79
f 75//80 84//80 85//80
f 79//81 88//81 89//81
f 85//82 84//82 93//82
f 88//83 97//83 98//83
f 85//84 94//84 95//84
f 83//85 82//85 91//85
f 90//86 89//86 98//86
f 87//87 86//87 95//87
f 83//88 92//88 93//88
f 90//89 99//89 91//89
f 87//90 96//90 97//90
f 92//91 101//91 102//91
f 99//92 108//92 100//92
f 96//93 105//93 106//93
f 94//94 93//94 102//94
f 97//95 106//95 107//95
f 95//96 94//96 103//96
f 92//97 91//97 100//97
f 98//98 107//98 108//98
f 95//99 104//99 105//99
f 101//100 100//100 109//100
f 107//101 116//101 117//101
f 105//102 104//102 113//102
f 102//103 101//103 110//103
f 100//104 108//104 117//104
f 106//105 105//105 114//105
f 103//106 102//106 111//106
f 106//107 115//107 116//107
f 103//108 112//108 113//108
f 116//109 115//109 124//109
f 112//110 121//110 122//110
f 109//111 118//111 119//111
f 116//112 125//112 126//112
f 113//113 122//113 123//113
f 111//114 110//114 119//114
f 117//115 126//115 118//115
f 115//116 114//116 123//116
f 111//117 120//117 121//117
f 124//118 123//118 132//118
f 121//119 120//119 129//119
f 124//120 133//120 134//120
f 121//121 130//121 131//121
f 118//122 127//122 128//122
f 126//123 125//123 134//123
f 122//124 131//124 132//124
f 119//125 128//125 129//125
f 118//126 126//126 135//126
f 131//127 140//127 141//127
f 128//128 137//128 138//128
f 127//129 135//129 144//129
f 132//130 141//130 142//130
f 129//131 138//131 139//131
f 133//132 142//132 143//132
f 131//133 130//133 139//133
f 128//134 127//134 136//134
f 134//135 143//135 144//135
f 172//136 148//136 149//136
f 174//137 145//137 146//137
f 177//138 153//138 145//138
f 178//139 150//139 151//139
f 179//140 147//140 148//140
f 180//141 151//141 152//141
f 1//142 2//142 9//142
f 2//142 3//142 9//142
f 3//142 4//142 7//142
f 4//142 5//142 7//142
f 5//142 6//142 7//142
f 7//142 8//142 9//142
f 154//143 163//143 164//143
f 153//144 162//144 154//144
f 151//144 150//144 159//144
f 147//144 156//144 157//144
f 152//144 151//144 160//144
f 148//144 157//144 158//144
f 146//144 145//144 154//144
f 165//144 164//144 163//144
f 163//144 171//144 170//144
f 170//144 169//144 168//144
f 168//144 167//144 166//144
f 166//144 165//144 163//144
f 163//144 170//144 166//144
f 162//145 171//145 163//145
f 159//146 168//146 169//146
f 156//147 165//147 166//147
f 160//148 169//148 170//148
f 157//149 166//149 167//149
f 142//141 180//141 176//141
f 138//140 179//140 172//140
f 141//139 178//139 180//139
f 144//138 177//138 174//138
f 137//150 175//150 179//150
f 140//151 173//151 178//151
f 143//152 176//152 177//152
f 136//137 174//137 175//137
f 139//136 172//136 173//136
f 177//153 176//153 170//153
f 152//154 161//154 170//154
f 153//155 177//155 171//155
f 146//156 155//156 164//156
f 179//157 175//157 164//157
f 147//158 179//158 165//158
f 150//159 178//159 168//159
f 178//160 173//160 167//160
f 149//161 158//161 167//161
