# Blender v2.80 (sub 75) OBJ File: ''
# www.blender.org
mtllib black_bishop.mtl
o Black_Bishop_mesh_Black_Bishop_mesh
v 0.000000 -0.172231 0.550332
v 0.353747 -0.172231 0.421579
v 0.541972 -0.172231 0.095564
v 0.476602 -0.172231 -0.275166
v 0.188224 -0.172231 -0.517143
v -0.188225 -0.172231 -0.517143
v -0.476602 -0.172231 -0.275166
v -0.541972 -0.172231 0.095564
v -0.353747 -0.172231 0.421579
v 0.000000 -0.135576 0.589585
v 0.378978 -0.135576 0.451648
v 0.580628 -0.135576 0.102380
v 0.510596 -0.135576 -0.294793
v 0.201650 -0.135576 -0.554029
v -0.201650 -0.135576 -0.554029
v -0.510596 -0.135576 -0.294792
v -0.580628 -0.135576 0.102380
v -0.378978 -0.135576 0.451649
v 0.000000 0.030464 0.586089
v 0.376731 0.030464 0.448970
v 0.577185 0.030464 0.101773
v 0.507568 0.030464 -0.293045
v 0.200454 0.030464 -0.550744
v -0.200455 0.030464 -0.550744
v -0.507568 0.030464 -0.293044
v -0.577185 0.030464 0.101773
v -0.376731 0.030464 0.448970
v 0.000000 0.067119 0.586089
v 0.376731 0.067119 0.448970
v 0.577185 0.067119 0.101773
v 0.507568 0.067119 -0.293045
v 0.200454 0.067119 -0.550744
v -0.200455 0.067119 -0.550744
v -0.507568 0.067119 -0.293044
v -0.577185 0.067119 0.101773
v -0.376731 0.067119 0.448970
v -0.183921 0.048791 -0.505318
v -0.465703 0.048791 -0.268874
v 0.529578 0.048791 0.093379
v 0.465703 0.048791 -0.268874
v -0.529578 0.048791 0.093379
v 0.183920 0.048791 -0.505318
v 0.000000 0.048791 0.537748
v 0.345657 0.048791 0.411939
v -0.345658 0.048791 0.411939
v 0.000000 0.161434 0.542485
v 0.348702 0.161434 0.415567
v 0.534243 0.161434 0.094201
v 0.469805 0.161434 -0.271242
v 0.185540 0.161434 -0.509769
v -0.185541 0.161434 -0.509769
v -0.469806 0.161434 -0.271242
v -0.534243 0.161434 0.094202
v -0.348702 0.161434 0.415567
v 0.000000 0.267969 0.586143
v 0.376766 0.267969 0.449012
v 0.577239 0.267969 0.101783
v 0.507615 0.267969 -0.293072
v 0.200473 0.267969 -0.550795
v -0.200473 0.267969 -0.550795
v -0.507615 0.267969 -0.293072
v -0.577239 0.267969 0.101783
v -0.376766 0.267969 0.449012
v 0.000000 0.365104 0.558350
v 0.358900 0.365104 0.427721
v 0.549867 0.365104 0.096956
v 0.483545 0.365104 -0.279175
v 0.190967 0.365104 -0.524677
v -0.190967 0.365104 -0.524677
v -0.483545 0.365104 -0.279175
v -0.549867 0.365104 0.096957
v -0.358900 0.365104 0.427721
v 0.000000 0.493573 0.397136
v 0.255274 0.493573 0.304224
v 0.391102 0.493573 0.068962
v 0.343929 0.493573 -0.198568
v 0.135828 0.493573 -0.373186
v -0.135829 0.493573 -0.373186
v -0.343930 0.493573 -0.198568
v -0.391102 0.493573 0.068962
v -0.255274 0.493573 0.304224
v 0.000000 0.625176 0.372826
v 0.239648 0.625176 0.285601
v 0.367161 0.625176 0.064740
v 0.322876 0.625176 -0.186413
v 0.127514 0.625176 -0.350342
v -0.127514 0.625176 -0.350341
v -0.322877 0.625176 -0.186413
v -0.367162 0.625176 0.064741
v -0.239648 0.625176 0.285601
v 0.000000 0.647110 0.306441
v 0.196976 0.647110 0.234747
v 0.301785 0.647110 0.053213
v 0.265385 0.647110 -0.153220
v 0.104809 0.647110 -0.287960
v -0.104809 0.647110 -0.287960
v -0.265386 0.647110 -0.153220
v -0.301785 0.647110 0.053213
v -0.196976 0.647110 0.234747
v 0.000000 0.885248 0.208736
v 0.134173 0.885248 0.159901
v 0.205565 0.885248 0.036247
v 0.180771 0.885248 -0.104368
v 0.071392 0.885248 -0.196148
v -0.071392 0.885248 -0.196148
v -0.180771 0.885248 -0.104368
v -0.205565 0.885248 0.036247
v -0.134173 0.885248 0.159901
v 0.000000 1.173520 0.220069
v 0.141457 1.173520 0.168583
v 0.216725 1.173520 0.038214
v 0.190585 1.173520 -0.110035
v 0.075268 1.173520 -0.206797
v -0.075268 1.173520 -0.206797
v -0.190586 1.173520 -0.110034
v -0.216726 1.173520 0.038215
v -0.141458 1.173520 0.168583
v 0.000000 1.186053 0.379112
v 0.243689 1.186053 0.290417
v 0.373352 1.186053 0.065832
v 0.328321 1.186053 -0.189556
v 0.129664 1.186053 -0.356249
v -0.129664 1.186053 -0.356249
v -0.328321 1.186053 -0.189556
v -0.373353 1.186053 0.065832
v -0.243689 1.186053 0.290417
v 0.000000 1.248721 0.412386
v 0.265077 1.248721 0.315906
v 0.406121 1.248721 0.071610
v 0.357137 1.248721 -0.206193
v 0.141044 1.248721 -0.387516
v -0.141045 1.248721 -0.387516
v -0.357137 1.248721 -0.206193
v -0.406121 1.248721 0.071610
v -0.265077 1.248721 0.315906
v 0.000000 1.333323 0.378836
v 0.243511 1.333323 0.290205
v 0.373080 1.333323 0.065784
v 0.328082 1.333323 -0.189418
v 0.129569 1.333323 -0.355989
v -0.129570 1.333323 -0.355989
v -0.328082 1.333323 -0.189418
v -0.373081 1.333323 0.065784
v -0.243511 1.333323 0.290205
v 0.000000 1.348990 0.327639
v 0.210602 1.348990 0.250986
v 0.322661 1.348990 0.056894
v 0.283744 1.348990 -0.163820
v 0.112059 1.348990 -0.307880
v -0.112059 1.348990 -0.307880
v -0.283744 1.348990 -0.163820
v -0.322662 1.348990 0.056894
v -0.210603 1.348990 0.250986
v 0.000000 1.424191 0.298961
v 0.192168 1.424191 0.229017
v 0.294419 1.424191 0.051914
v 0.258908 1.424191 -0.149481
v 0.102251 1.424191 -0.280932
v -0.102251 1.424191 -0.280932
v -0.258908 1.424191 -0.149480
v -0.294419 1.424191 0.051914
v -0.192169 1.424191 0.229017
v 0.000000 1.471192 0.219324
v 0.140979 1.471192 0.168012
v 0.215992 1.471192 0.038085
v 0.189940 1.471192 -0.109662
v 0.075013 1.471192 -0.206097
v -0.075013 1.471192 -0.206097
v -0.189940 1.471192 -0.109662
v -0.215992 1.471192 0.038085
v -0.140979 1.471192 0.168012
v 0.000000 1.518193 0.245448
v 0.157771 1.518193 0.188024
v 0.241719 1.518193 0.042621
v 0.212564 1.518193 -0.122724
v 0.083948 1.518193 -0.230646
v -0.083948 1.518193 -0.230646
v -0.212564 1.518193 -0.122724
v -0.241719 1.518193 0.042622
v -0.157771 1.518193 0.188024
v 0.000000 1.546393 0.212787
v 0.136777 1.546393 0.163004
v 0.209554 1.546393 0.036950
v 0.184279 1.546393 -0.106394
v 0.072777 1.546393 -0.199955
v -0.072778 1.546393 -0.199954
v -0.184279 1.546393 -0.106394
v -0.209555 1.546393 0.036950
v -0.136777 1.546393 0.163004
v 0.000000 1.668596 0.360274
v 0.231579 1.668596 0.275986
v 0.354800 1.668596 0.062561
v 0.312006 1.668596 -0.180137
v 0.123221 1.668596 -0.338546
v -0.123221 1.668596 -0.338546
v -0.312006 1.668596 -0.180137
v -0.354800 1.668596 0.062561
v -0.231580 1.668596 0.275986
v 0.000000 1.900467 0.402898
v 0.258978 1.900467 0.308638
v 0.396777 1.900467 0.069962
v 0.348920 1.900467 -0.201449
v 0.137799 1.900467 -0.378600
v -0.137800 1.900467 -0.378600
v -0.348920 1.900467 -0.201449
v -0.396777 1.900467 0.069963
v -0.258978 1.900467 0.308638
v 0.000000 2.113538 0.305887
v 0.196620 2.113538 0.234323
v 0.301240 2.113538 0.053117
v 0.264906 2.113538 -0.152944
v 0.104619 2.113538 -0.287440
v -0.104620 2.113538 -0.287440
v -0.264906 2.113538 -0.152944
v -0.301240 2.113538 0.053117
v -0.196621 2.113538 0.234323
v -0.000000 2.251407 0.105632
v 0.067899 2.251407 0.080918
v 0.104027 2.251407 0.018343
v 0.091479 2.251407 -0.052816
v 0.036128 2.251407 -0.099261
v -0.036128 2.251407 -0.099261
v -0.091480 2.251407 -0.052816
v -0.104027 2.251407 0.018343
v -0.067899 2.251407 0.080918
v 0.000000 2.307808 0.168578
v 0.108359 2.307808 0.129138
v 0.166016 2.307808 0.029273
v 0.145992 2.307808 -0.084289
v 0.057657 2.307808 -0.158411
v -0.057657 2.307808 -0.158411
v -0.145993 2.307808 -0.084289
v -0.166017 2.307808 0.029273
v -0.108360 2.307808 0.129138
v 0.000000 2.367342 0.168578
v 0.108359 2.367342 0.129138
v 0.166016 2.367342 0.029273
v 0.145992 2.367342 -0.084289
v 0.057657 2.367342 -0.158411
v -0.057657 2.367342 -0.158411
v -0.145993 2.367342 -0.084289
v -0.166017 2.367342 0.029273
v -0.108360 2.367342 0.129138
v -0.000000 2.412463 0.101129
v 0.065004 2.412463 0.077469
v 0.099592 2.412463 0.017561
v 0.087580 2.412463 -0.050564
v 0.034588 2.412463 -0.095030
v -0.034588 2.412463 -0.095030
v -0.087580 2.412463 -0.050564
v -0.099592 2.412463 0.017561
v -0.065004 2.412463 0.077469
v 0.131887 1.938435 -0.362356
v 0.118687 2.023196 -0.326092
v 0.333232 2.042189 0.058758
v 0.270838 2.098492 -0.156369
v 0.299826 2.024975 -0.173105
v 0.058204 1.900467 -0.378600
v 0.232667 1.990368 0.277282
v 0.209856 2.068313 0.250096
v 0.058205 1.900467 0.381713
v 0.001629 1.965267 -0.350875
v 0.001629 1.965267 0.372801
vn 0.4531 0.7093 0.5400
vn -0.6942 0.7093 0.1224
vn 0.6942 0.7093 0.1224
vn -0.4531 0.7093 0.5400
vn -0.2411 0.7093 -0.6624
vn 0.6104 0.7093 -0.3524
vn 0.0000 0.7093 0.7049
vn -0.6105 0.7093 -0.3524
vn 0.2411 0.7093 -0.6624
vn 0.9846 -0.0198 0.1736
vn -0.6427 -0.0198 0.7659
vn -0.3420 -0.0198 -0.9395
vn 0.8659 -0.0198 -0.4999
vn 0.0000 -0.0198 0.9998
vn -0.8659 -0.0198 -0.4999
vn 0.3420 -0.0198 -0.9395
vn 0.6427 -0.0198 0.7659
vn -0.9846 -0.0198 0.1736
vn 0.2405 0.9274 0.2866
vn -0.3685 0.9274 0.0650
vn 0.3685 0.9274 0.0650
vn -0.2405 0.9274 0.2866
vn -0.1280 0.9274 -0.3516
vn 0.3240 0.9274 -0.1871
vn 0.0000 0.9274 0.3742
vn -0.3240 0.9274 -0.1871
vn 0.1280 0.9274 -0.3516
vn 0.1280 -0.9274 -0.3516
vn -0.3240 -0.9274 -0.1871
vn 0.0000 -0.9274 0.3742
vn 0.3240 -0.9274 -0.1871
vn -0.1280 -0.9274 -0.3516
vn -0.2405 -0.9274 0.2866
vn 0.3685 -0.9274 0.0650
vn -0.3685 -0.9274 0.0650
vn 0.2405 -0.9274 0.2866
vn 0.0000 -0.3985 0.9172
vn -0.7943 -0.3985 -0.4586
vn 0.3137 -0.3985 -0.8619
vn 0.5896 -0.3985 0.7026
vn -0.9032 -0.3985 0.1593
vn 0.9032 -0.3985 0.1593
vn -0.5896 -0.3985 0.7026
vn -0.3137 -0.3985 -0.8619
vn 0.7943 -0.3985 -0.4586
vn 0.8082 0.3594 -0.4666
vn 0.0000 0.3594 0.9332
vn -0.8082 0.3594 -0.4666
vn 0.3192 0.3594 -0.8769
vn 0.5998 0.3594 0.7149
vn -0.9190 0.3594 0.1620
vn 0.9190 0.3594 0.1620
vn -0.5998 0.3594 0.7149
vn -0.3192 0.3594 -0.8769
vn 0.9510 -0.2597 0.1677
vn -0.6207 -0.2597 0.7398
vn -0.3303 -0.2597 -0.9075
vn 0.8363 -0.2597 -0.4829
vn 0.0000 -0.2597 0.9657
vn -0.8363 -0.2597 -0.4829
vn 0.3303 -0.2597 -0.9075
vn 0.6207 -0.2597 0.7398
vn -0.9510 -0.2597 0.1677
vn 0.4157 -0.7627 0.4955
vn -0.6369 -0.7627 0.1123
vn 0.6369 -0.7627 0.1123
vn -0.4157 -0.7627 0.4955
vn -0.2212 -0.7627 -0.6078
vn 0.5601 -0.7627 -0.3234
vn 0.0000 -0.7627 0.6468
vn -0.5601 -0.7627 -0.3234
vn 0.2212 -0.7627 -0.6078
vn 0.0000 -0.1710 0.9853
vn -0.8533 -0.1710 -0.4926
vn 0.3370 -0.1710 -0.9258
vn 0.6333 -0.1710 0.7548
vn -0.9703 -0.1710 0.1711
vn 0.9703 -0.1710 0.1711
vn -0.6333 -0.1710 0.7548
vn -0.3370 -0.1710 -0.9258
vn 0.8533 -0.1710 -0.4926
vn -0.2132 -0.9434 0.2541
vn -0.1134 -0.9434 -0.3117
vn 0.2873 -0.9434 -0.1659
vn 0.0000 -0.9434 0.3317
vn -0.2873 -0.9434 -0.1659
vn 0.1134 -0.9434 -0.3117
vn 0.2132 -0.9434 0.2541
vn -0.3267 -0.9434 0.0576
vn 0.3267 -0.9434 0.0576
vn -0.9189 -0.3597 0.1620
vn 0.9189 -0.3597 0.1620
vn -0.5998 -0.3597 0.7148
vn -0.3191 -0.3597 -0.8768
vn 0.8080 -0.3597 -0.4665
vn 0.0000 -0.3597 0.9331
vn -0.8080 -0.3597 -0.4665
vn 0.3191 -0.3597 -0.8768
vn 0.5998 -0.3597 0.7148
vn -0.8654 0.0369 -0.4997
vn 0.3418 0.0369 -0.9391
vn 0.6423 0.0369 0.7655
vn -0.9841 0.0369 0.1735
vn 0.9841 0.0369 0.1735
vn -0.6423 0.0369 0.7655
vn -0.3418 0.0369 -0.9391
vn 0.8654 0.0369 -0.4997
vn 0.0000 0.0369 0.9993
vn -0.0286 0.9965 -0.0785
vn 0.0724 0.9965 -0.0418
vn 0.0000 0.9965 0.0836
vn -0.0724 0.9965 -0.0418
vn 0.0286 0.9965 -0.0785
vn 0.0537 0.9965 0.0640
vn -0.0823 0.9965 0.0145
vn 0.0823 0.9965 0.0145
vn -0.0537 0.9965 0.0640
vn 0.8812 0.4465 0.1554
vn -0.5752 0.4465 0.6855
vn -0.3060 0.4465 -0.8408
vn 0.7749 0.4465 -0.4474
vn 0.0000 0.4465 0.8948
vn -0.7749 0.4465 -0.4474
vn 0.3060 0.4465 -0.8408
vn 0.5752 0.4465 0.6855
vn -0.8812 0.4465 0.1554
vn 0.6023 -0.3492 0.7178
vn -0.9228 -0.3492 0.1627
vn 0.9228 -0.3492 0.1627
vn -0.6023 -0.3492 0.7178
vn -0.3205 -0.3492 -0.8805
vn 0.8115 -0.3492 -0.4685
vn 0.0000 -0.3492 0.9371
vn -0.8115 -0.3492 -0.4685
vn 0.3205 -0.3492 -0.8805
vn 0.0000 -0.9509 0.3096
vn -0.2682 -0.9509 -0.1548
vn 0.1059 -0.9509 -0.2910
vn 0.1990 -0.9509 0.2372
vn -0.3049 -0.9509 0.0538
vn 0.3049 -0.9509 0.0538
vn -0.1990 -0.9509 0.2372
vn -0.1059 -0.9509 -0.2910
vn 0.2682 -0.9509 -0.1548
vn -0.6051 -0.3373 0.7211
vn -0.3220 -0.3373 -0.8846
vn 0.8153 -0.3373 -0.4707
vn 0.0000 -0.3373 0.9414
vn -0.8153 -0.3373 -0.4707
vn 0.3220 -0.3373 -0.8846
vn 0.6051 -0.3373 0.7211
vn -0.9271 -0.3373 0.1635
vn 0.9271 -0.3373 0.1635
vn -0.5238 -0.8468 0.0924
vn 0.5238 -0.8468 0.0924
vn -0.3419 -0.8468 0.4074
vn -0.1819 -0.8468 -0.4998
vn 0.4606 -0.8468 -0.2659
vn 0.0000 -0.8468 0.5319
vn -0.4606 -0.8468 -0.2659
vn 0.1819 -0.8468 -0.4998
vn 0.3419 -0.8468 0.4074
vn -0.7676 0.4630 -0.4432
vn 0.3032 0.4630 -0.8329
vn 0.5698 0.4630 0.6790
vn -0.8729 0.4630 0.1539
vn 0.8729 0.4630 0.1539
vn -0.5698 0.4630 0.6790
vn -0.3032 0.4630 -0.8329
vn 0.7676 0.4630 -0.4432
vn 0.0000 0.4630 0.8864
vn -0.2314 -0.7364 -0.6358
vn 0.5859 -0.7364 -0.3383
vn 0.0000 -0.7364 0.6766
vn -0.5859 -0.7364 -0.3383
vn 0.2314 -0.7364 -0.6358
vn 0.4349 -0.7364 0.5183
vn -0.6663 -0.7364 0.1175
vn 0.6663 -0.7364 0.1175
vn -0.4349 -0.7364 0.5183
vn 0.6513 0.7501 0.1148
vn -0.4251 0.7501 0.5066
vn -0.2262 0.7501 -0.6215
vn 0.5728 0.7501 -0.3307
vn 0.0000 0.7501 0.6614
vn -0.5728 0.7501 -0.3307
vn 0.2262 0.7501 -0.6215
vn 0.4251 0.7501 0.5066
vn -0.6513 0.7501 0.1148
vn 0.3370 0.1702 -0.9260
vn 0.6334 0.1702 0.7549
vn -0.9704 0.1702 0.1711
vn 0.9704 0.1702 0.1711
vn -0.6334 0.1702 0.7549
vn -0.3370 0.1702 -0.9260
vn 0.8534 0.1702 -0.4927
vn 0.0000 0.1702 0.9854
vn -0.8534 0.1702 -0.4927
vn 0.7962 -0.3934 -0.4597
vn -0.0000 -0.3934 0.9194
vn 0.3144 -0.3934 -0.8639
vn 0.5910 -0.3934 0.7043
vn -0.9054 -0.3933 0.1596
vn 0.9054 -0.3934 0.1596
vn -0.5910 -0.3933 0.7043
vn 0.5820 -0.8067 0.1026
vn -0.3799 -0.8067 0.4527
vn -0.2021 -0.8067 -0.5554
vn 0.5118 -0.8067 -0.2955
vn 0.0000 -0.8067 0.5910
vn -0.5118 -0.8067 -0.2955
vn 0.2021 -0.8067 -0.5554
vn 0.3799 -0.8067 0.4527
vn -0.5820 -0.8067 0.1026
vn 0.4436 0.7237 0.5286
vn -0.6796 0.7237 0.1198
vn 0.6796 0.7237 0.1198
vn -0.4436 0.7237 0.5286
vn -0.2360 0.7237 -0.6485
vn 0.5976 0.7237 -0.3450
vn 0.0000 0.7237 0.6901
vn -0.5976 0.7237 -0.3450
vn 0.2360 0.7237 -0.6485
vn 0.0000 0.0000 1.0000
vn -0.8660 0.0000 -0.5000
vn 0.3420 0.0000 -0.9397
vn 0.6428 0.0000 0.7660
vn -0.9848 0.0000 0.1736
vn 0.9848 0.0000 0.1736
vn -0.6428 0.0000 0.7660
vn -0.3420 0.0000 -0.9397
vn 0.8660 0.0000 -0.5000
vn -0.3728 -0.8147 0.4443
vn -0.1984 -0.8147 -0.5450
vn 0.5023 -0.8147 -0.2900
vn 0.0000 -0.8147 0.5800
vn -0.5023 -0.8147 -0.2900
vn 0.1984 -0.8147 -0.5450
vn 0.3728 -0.8147 0.4443
vn -0.5711 -0.8147 0.1007
vn 0.5711 -0.8147 0.1007
vn 0.0000 -1.0000 0.0000
vn -0.5910 -0.3934 0.7043
vn -0.3144 -0.3934 -0.8639
vn -0.3145 -0.3933 -0.8639
vn -0.9054 -0.3934 0.1597
vn -0.7962 -0.3933 -0.4597
vn -0.7962 -0.3934 -0.4597
vn -0.7533 -0.6577 0.0000
vn 0.4581 -0.8889 0.0000
vn -0.4435 0.8963 -0.0000
usemtl Material_004
s off
f 7//1 6//1 15//1 16//1
f 4//2 3//2 12//2 13//2
f 8//3 7//3 16//3 17//3
f 5//4 4//4 13//4 14//4
f 2//5 1//5 10//5 11//5
f 9//6 8//6 17//6 18//6
f 6//7 5//7 14//7 15//7
f 3//8 2//8 11//8 12//8
f 1//9 9//9 18//9 10//9
f 17//10 16//10 25//10 26//10
f 14//11 13//11 22//11 23//11
f 11//12 10//12 19//12 20//12
f 18//13 17//13 26//13 27//13
f 15//14 14//14 23//14 24//14
f 12//15 11//15 20//15 21//15
f 10//16 18//16 27//16 19//16
f 16//17 15//17 24//17 25//17
f 13//18 12//18 21//18 22//18
f 38//19 37//19 33//19 34//19
f 40//20 39//20 30//20 31//20
f 41//21 38//21 34//21 35//21
f 42//22 40//22 31//22 32//22
f 44//23 43//23 28//23 29//23
f 45//24 41//24 35//24 36//24
f 37//25 42//25 32//25 33//25
f 39//26 44//26 29//26 30//26
f 43//27 45//27 36//27 28//27
f 19//28 27//28 45//28 43//28
f 21//29 20//29 44//29 39//29
f 24//30 23//30 42//30 37//30
f 27//31 26//31 41//31 45//31
f 20//32 19//32 43//32 44//32
f 23//33 22//33 40//33 42//33
f 26//34 25//34 38//34 41//34
f 22//35 21//35 39//35 40//35
f 25//36 24//36 37//36 38//36
f 33//37 32//37 50//37 51//37
f 30//38 29//38 47//38 48//38
f 28//39 36//39 54//39 46//39
f 34//40 33//40 51//40 52//40
f 31//41 30//41 48//41 49//41
f 35//42 34//42 52//42 53//42
f 32//43 31//43 49//43 50//43
f 29//44 28//44 46//44 47//44
f 36//45 35//45 53//45 54//45
f 54//46 53//46 62//46 63//46
f 51//47 50//47 59//47 60//47
f 48//48 47//48 56//48 57//48
f 46//49 54//49 63//49 55//49
f 52//50 51//50 60//50 61//50
f 49//51 48//51 57//51 58//51
f 53//52 52//52 61//52 62//52
f 50//53 49//53 58//53 59//53
f 47//54 46//54 55//54 56//54
f 62//55 61//55 70//55 71//55
f 59//56 58//56 67//56 68//56
f 56//57 55//57 64//57 65//57
f 63//58 62//58 71//58 72//58
f 60//59 59//59 68//59 69//59
f 57//60 56//60 65//60 66//60
f 55//61 63//61 72//61 64//61
f 61//62 60//62 69//62 70//62
f 58//63 57//63 66//63 67//63
f 70//64 69//64 78//64 79//64
f 67//65 66//65 75//65 76//65
f 71//66 70//66 79//66 80//66
f 68//67 67//67 76//67 77//67
f 65//68 64//68 73//68 74//68
f 72//69 71//69 80//69 81//69
f 69//70 68//70 77//70 78//70
f 66//71 65//71 74//71 75//71
f 64//72 72//72 81//72 73//72
f 78//73 77//73 86//73 87//73
f 75//74 74//74 83//74 84//74
f 73//75 81//75 90//75 82//75
f 79//76 78//76 87//76 88//76
f 76//77 75//77 84//77 85//77
f 80//78 79//78 88//78 89//78
f 77//79 76//79 85//79 86//79
f 74//80 73//80 82//80 83//80
f 81//81 80//81 89//81 90//81
f 86//82 85//82 94//82 95//82
f 83//83 82//83 91//83 92//83
f 90//84 89//84 98//84 99//84
f 87//85 86//85 95//85 96//85
f 84//86 83//86 92//86 93//86
f 82//87 90//87 99//87 91//87
f 88//88 87//88 96//88 97//88
f 85//89 84//89 93//89 94//89
f 89//90 88//90 97//90 98//90
f 94//91 93//91 102//91 103//91
f 98//92 97//92 106//92 107//92
f 95//93 94//93 103//93 104//93
f 92//94 91//94 100//94 101//94
f 99//95 98//95 107//95 108//95
f 96//96 95//96 104//96 105//96
f 93//97 92//97 101//97 102//97
f 91//98 99//98 108//98 100//98
f 97//99 96//99 105//99 106//99
f 102//100 101//100 110//100 111//100
f 100//101 108//101 117//101 109//101
f 106//102 105//102 114//102 115//102
f 103//103 102//103 111//103 112//103
f 107//104 106//104 115//104 116//104
f 104//105 103//105 112//105 113//105
f 101//106 100//106 109//106 110//106
f 108//107 107//107 116//107 117//107
f 105//108 104//108 113//108 114//108
f 110//109 109//109 118//109 119//109
f 117//110 116//110 125//110 126//110
f 114//111 113//111 122//111 123//111
f 111//112 110//112 119//112 120//112
f 109//113 117//113 126//113 118//113
f 115//114 114//114 123//114 124//114
f 112//115 111//115 120//115 121//115
f 116//116 115//116 124//116 125//116
f 113//117 112//117 121//117 122//117
f 125//118 124//118 133//118 134//118
f 122//119 121//119 130//119 131//119
f 119//120 118//120 127//120 128//120
f 126//121 125//121 134//121 135//121
f 123//122 122//122 131//122 132//122
f 120//123 119//123 128//123 129//123
f 118//124 126//124 135//124 127//124
f 124//125 123//125 132//125 133//125
f 121//126 120//126 129//126 130//126
f 133//127 132//127 141//127 142//127
f 130//128 129//128 138//128 139//128
f 134//129 133//129 142//129 143//129
f 131//130 130//130 139//130 140//130
f 128//131 127//131 136//131 137//131
f 135//132 134//132 143//132 144//132
f 132//133 131//133 140//133 141//133
f 129//134 128//134 137//134 138//134
f 127//135 135//135 144//135 136//135
f 141//136 140//136 149//136 150//136
f 138//137 137//137 146//137 147//137
f 136//138 144//138 153//138 145//138
f 142//139 141//139 150//139 151//139
f 139//140 138//140 147//140 148//140
f 143//141 142//141 151//141 152//141
f 140//142 139//142 148//142 149//142
f 137//143 136//143 145//143 146//143
f 144//144 143//144 152//144 153//144
f 149//145 148//145 157//145 158//145
f 146//146 145//146 154//146 155//146
f 153//147 152//147 161//147 162//147
f 150//148 149//148 158//148 159//148
f 147//149 146//149 155//149 156//149
f 145//150 153//150 162//150 154//150
f 151//151 150//151 159//151 160//151
f 148//152 147//152 156//152 157//152
f 152//153 151//153 160//153 161//153
f 157//154 156//154 165//154 166//154
f 161//155 160//155 169//155 170//155
f 158//156 157//156 166//156 167//156
f 155//157 154//157 163//157 164//157
f 162//158 161//158 170//158 171//158
f 159//159 158//159 167//159 168//159
f 156//160 155//160 164//160 165//160
f 154//161 162//161 171//161 163//161
f 160//162 159//162 168//162 169//162
f 165//163 164//163 173//163 174//163
f 163//164 171//164 180//164 172//164
f 169//165 168//165 177//165 178//165
f 166//166 165//166 174//166 175//166
f 170//167 169//167 178//167 179//167
f 167//168 166//168 175//168 176//168
f 164//169 163//169 172//169 173//169
f 171//170 170//170 179//170 180//170
f 168//171 167//171 176//171 177//171
f 173//172 172//172 181//172 182//172
f 180//173 179//173 188//173 189//173
f 177//174 176//174 185//174 186//174
f 174//175 173//175 182//175 183//175
f 172//176 180//176 189//176 181//176
f 178//177 177//177 186//177 187//177
f 175//178 174//178 183//178 184//178
f 179//179 178//179 187//179 188//179
f 176//180 175//180 184//180 185//180
f 188//181 187//181 196//181 197//181
f 185//182 184//182 193//182 194//182
f 182//183 181//183 190//183 191//183
f 189//184 188//184 197//184 198//184
f 186//185 185//185 194//185 195//185
f 183//186 182//186 191//186 192//186
f 181//187 189//187 198//187 190//187
f 187//188 186//188 195//188 196//188
f 184//189 183//189 192//189 193//189
f 190//190 198//190 207//190 199//190
f 196//191 195//191 204//191 205//191
f 193//192 192//192 201//192 202//192
f 197//193 196//193 205//193 206//193
f 194//194 193//194 202//194 203//194
f 191//195 190//195 199//195 261//195 200//195
f 198//196 197//196 206//196 207//196
f 195//197 194//197 203//197 258//197 204//197
f 192//198 191//198 200//198 201//198
f 207//199 206//199 215//199 216//199
f 204//200 258//200 262//200 254//200 212//200 213//200
f 199//201 207//201 216//201 208//201
f 205//202 204//202 213//202 214//202
f 256//203 210//203 211//203
f 206//204 205//204 214//204 215//204
f 254//205 256//205 211//205 212//205
f 215//206 214//206 223//206 224//206
f 212//207 211//207 220//207 221//207
f 209//208 208//208 217//208 218//208
f 216//209 215//209 224//209 225//209
f 213//210 212//210 221//210 222//210
f 210//211 209//211 218//211 219//211
f 208//212 216//212 225//212 217//212
f 214//213 213//213 222//213 223//213
f 211//214 210//214 219//214 220//214
f 223//215 222//215 231//215 232//215
f 220//216 219//216 228//216 229//216
f 224//217 223//217 232//217 233//217
f 221//218 220//218 229//218 230//218
f 218//219 217//219 226//219 227//219
f 225//220 224//220 233//220 234//220
f 222//221 221//221 230//221 231//221
f 219//222 218//222 227//222 228//222
f 217//223 225//223 234//223 226//223
f 231//224 230//224 239//224 240//224
f 228//225 227//225 236//225 237//225
f 226//226 234//226 243//226 235//226
f 232//227 231//227 240//227 241//227
f 229//228 228//228 237//228 238//228
f 233//229 232//229 241//229 242//229
f 230//230 229//230 238//230 239//230
f 227//231 226//231 235//231 236//231
f 234//232 233//232 242//232 243//232
f 239//233 238//233 247//233 248//233
f 236//234 235//234 244//234 245//234
f 243//235 242//235 251//235 252//235
f 240//236 239//236 248//236 249//236
f 237//237 236//237 245//237 246//237
f 235//238 243//238 252//238 244//238
f 241//239 240//239 249//239 250//239
f 238//240 237//240 246//240 247//240
f 242//241 241//241 250//241 251//241
f 245//242 244//242 252//242 251//242 250//242 249//242 248//242 247//242 246//242
f 203//243 202//243 257//243 253//243
f 258//200 203//200 253//200
f 200//244 261//244 259//244
f 261//245 199//245 208//245 209//245 260//245 263//245
f 202//246 201//246 255//246 257//246
f 210//247 260//247 209//247
f 201//248 200//248 259//248 255//248
f 262//249 258//249 261//249 263//249
f 257//250 255//250 259//250 261//250 258//250 253//250
f 254//251 262//251 263//251 260//251 210//251 256//251
