# Blender v2.80 (sub 75) OBJ File: ''
# www.blender.org
mtllib board.mtl
o Board_mesh
v -6.000000 -0.000000 6.000000
v 6.000000 -0.000000 6.000000
v -6.000000 0.000000 -6.000000
v 6.000000 0.000000 -6.000000
v -6.000000 0.000000 -4.500000
v -6.000000 0.000000 -3.000000
v -6.000000 0.000000 -1.500000
v -6.000000 0.000000 0.000000
v -6.000000 -0.000000 1.500000
v -6.000000 -0.000000 3.000000
v -6.000000 -0.000000 4.500000
v -4.500000 -0.000000 6.000000
v -3.000000 -0.000000 6.000000
v -1.500000 -0.000000 6.000000
v 0.000000 -0.000000 6.000000
v 1.500000 -0.000000 6.000000
v 3.000000 -0.000000 6.000000
v 4.500000 -0.000000 6.000000
v 6.000000 -0.000000 4.500000
v 6.000000 -0.000000 3.000000
v 6.000000 -0.000000 1.500000
v 6.000000 0.000000 0.000000
v 6.000000 0.000000 -1.500000
v 6.000000 0.000000 -3.000000
v 6.000000 0.000000 -4.500000
v 4.500000 0.000000 -6.000000
v 3.000000 0.000000 -6.000000
v 1.500000 0.000000 -6.000000
v 0.000000 0.000000 -6.000000
v -1.500000 0.000000 -6.000000
v -3.000000 0.000000 -6.000000
v -4.500000 0.000000 -6.000000
v -4.500000 -0.000000 4.500000
v -4.500000 -0.000000 3.000000
v -4.500000 -0.000000 1.500000
v -4.500000 0.000000 0.000000
v -4.500000 0.000000 -1.500000
v -4.500000 0.000000 -3.000000
v -4.500000 0.000000 -4.500000
v -3.000000 -0.000000 4.500000
v -3.000000 -0.000000 3.000000
v -3.000000 -0.000000 1.500000
v -3.000000 0.000000 0.000000
v -3.000000 0.000000 -1.500000
v -3.000000 0.000000 -3.000000
v -3.000000 0.000000 -4.500000
v -1.500000 -0.000000 4.500000
v -1.500000 -0.000000 3.000000
v -1.500000 -0.000000 1.500000
v -1.500000 0.000000 0.000000
v -1.500000 0.000000 -1.500000
v -1.500000 0.000000 -3.000000
v -1.500000 0.000000 -4.500000
v 0.000000 -0.000000 4.500000
v 0.000000 -0.000000 3.000000
v 0.000000 -0.000000 1.500000
v 0.000000 0.000000 0.000000
v 0.000000 0.000000 -1.500000
v 0.000000 0.000000 -3.000000
v 0.000000 0.000000 -4.500000
v 1.500000 -0.000000 4.500000
v 1.500000 -0.000000 3.000000
v 1.500000 -0.000000 1.500000
v 1.500000 0.000000 0.000000
v 1.500000 0.000000 -1.500000
v 1.500000 0.000000 -3.000000
v 1.500000 0.000000 -4.500000
v 3.000000 -0.000000 4.500000
v 3.000000 -0.000000 3.000000
v 3.000000 -0.000000 1.500000
v 3.000000 0.000000 0.000000
v 3.000000 0.000000 -1.500000
v 3.000000 0.000000 -3.000000
v 3.000000 0.000000 -4.500000
v 4.500000 -0.000000 4.500000
v 4.500000 -0.000000 3.000000
v 4.500000 -0.000000 1.500000
v 4.500000 0.000000 0.000000
v 4.500000 0.000000 -1.500000
v 4.500000 0.000000 -3.000000
v 4.500000 0.000000 -4.500000
v -6.000000 0.251617 6.000000
v 6.000000 0.251617 6.000000
v -6.000000 0.251617 -6.000000
v 6.000000 0.251617 -6.000000
v -6.000000 0.251617 -4.500000
v -6.000000 0.251617 -3.000000
v -6.000000 0.251617 -1.500000
v -6.000000 0.251617 0.000000
v -6.000000 0.251617 1.500000
v -6.000000 0.251617 3.000000
v -6.000000 0.251617 4.500000
v -4.500000 0.251617 6.000000
v -3.000000 0.251617 6.000000
v -1.500000 0.251617 6.000000
v 0.000000 0.251617 6.000000
v 1.500000 0.251617 6.000000
v 3.000000 0.251617 6.000000
v 4.500000 0.251617 6.000000
v 6.000000 0.251617 4.500000
v 6.000000 0.251617 3.000000
v 6.000000 0.251617 1.500000
v 6.000000 0.251617 0.000000
v 6.000000 0.251617 -1.500000
v 6.000000 0.251617 -3.000000
v 6.000000 0.251617 -4.500000
v 4.500000 0.251617 -6.000000
v 3.000000 0.251617 -6.000000
v 1.500000 0.251617 -6.000000
v 0.000000 0.251617 -6.000000
v -1.500000 0.251617 -6.000000
v -3.000000 0.251617 -6.000000
v -4.500000 0.251617 -6.000000
v -7.299530 0.251617 7.299530
v 7.299530 0.251617 7.299530
v -7.299530 0.251617 -7.299530
v 7.299530 0.251617 -7.299530
v -7.299530 0.251617 -5.474647
v -7.299530 0.251617 -3.649765
v -7.299530 0.251617 -1.824882
v -7.299530 0.251617 0.000000
v -7.299530 0.251617 1.824882
v -7.299530 0.251617 3.649765
v -7.299530 0.251617 5.474647
v -5.474647 0.251617 7.299530
v -3.649765 0.251617 7.299530
v -1.824882 0.251617 7.299530
v 0.000000 0.251617 7.299530
v 1.824882 0.251617 7.299530
v 3.649765 0.251617 7.299530
v 5.474647 0.251617 7.299530
v 7.299530 0.251617 5.474647
v 7.299530 0.251617 3.649765
v 7.299530 0.251617 1.824882
v 7.299530 0.251617 0.000000
v 7.299530 0.251617 -1.824882
v 7.299530 0.251617 -3.649765
v 7.299530 0.251617 -5.474647
v 5.474647 0.251617 -7.299530
v 3.649765 0.251617 -7.299530
v 1.824882 0.251617 -7.299530
v 0.000000 0.251617 -7.299530
v -1.824882 0.251617 -7.299530
v -3.649765 0.251617 -7.299530
v -5.474647 0.251617 -7.299530
v -7.299530 -0.277465 7.299530
v 7.299530 -0.277465 7.299530
v -7.299530 -0.277465 -7.299530
v 7.299530 -0.277465 -7.299530
v -7.299530 -0.277465 -5.474647
v -7.299530 -0.277465 -3.649765
v -7.299530 -0.277465 -1.824882
v -7.299530 -0.277465 -0.000000
v -7.299530 -0.277465 1.824882
v -7.299530 -0.277465 3.649765
v -7.299530 -0.277465 5.474647
v -5.474647 -0.277465 7.299530
v -3.649765 -0.277465 7.299530
v -1.824882 -0.277465 7.299530
v 0.000000 -0.277465 7.299530
v 1.824882 -0.277465 7.299530
v 3.649765 -0.277465 7.299530
v 5.474647 -0.277465 7.299530
v 7.299530 -0.277465 5.474647
v 7.299530 -0.277465 3.649765
v 7.299530 -0.277465 1.824882
v 7.299530 -0.277465 -0.000000
v 7.299530 -0.277465 -1.824882
v 7.299530 -0.277465 -3.649765
v 7.299530 -0.277465 -5.474647
v 5.474647 -0.277465 -7.299530
v 3.649765 -0.277465 -7.299530
v 1.824882 -0.277465 -7.299530
v 0.000000 -0.277465 -7.299530
v -1.824882 -0.277465 -7.299530
v -3.649765 -0.277465 -7.299530
v -5.474647 -0.277465 -7.299530
v 6.168254 0.251617 -1.542063
v 6.168254 0.251617 -3.084127
v -6.168254 0.251617 3.084127
v -6.168254 0.251617 4.626190
v 6.168254 0.251617 -4.626190
v -6.168254 0.251617 6.168254
v -4.626190 0.251617 6.168254
v 6.168254 0.251617 -6.168254
v 4.626190 0.251617 -6.168254
v -3.084127 0.251617 6.168254
v 3.084127 0.251617 -6.168254
v -1.542063 0.251617 6.168254
v 1.542063 0.251617 -6.168254
v 0.000000 0.251617 6.168254
v 4.626190 0.251617 6.168254
v 6.168254 0.251617 6.168254
v 0.000000 0.251617 -6.168254
v 1.542063 0.251617 6.168254
v -1.542063 0.251617 -6.168254
v 3.084127 0.251617 6.168254
v -4.626190 0.251617 -6.168254
v -6.168254 0.251617 -6.168254
v -3.084127 0.251617 -6.168254
v -6.168254 0.251617 -4.626190
v 6.168254 0.251617 4.626190
v -6.168254 0.251617 -3.084127
v 6.168254 0.251617 3.084127
v -6.168254 0.251617 -1.542063
v 6.168254 0.251617 1.542063
v -6.168254 0.251617 0.000000
v 6.168254 0.251617 0.000000
v -6.168254 0.251617 1.542063
v -6.000000 0.067674 -3.000000
v -6.000000 0.067674 -1.500000
v 6.000000 0.067674 3.000000
v 6.000000 0.067674 1.500000
v -6.000000 0.067674 0.000000
v 6.000000 0.067674 0.000000
v -6.000000 0.067674 1.500000
v 6.000000 0.067674 -1.500000
v -6.000000 0.067674 3.000000
v 6.000000 0.067674 -3.000000
v -6.000000 0.067674 4.500000
v 6.000000 0.067674 -4.500000
v -6.000000 0.067674 6.000000
v -4.500000 0.067674 6.000000
v 6.000000 0.067674 -6.000000
v 4.500000 0.067674 -6.000000
v -3.000000 0.067674 6.000000
v 3.000000 0.067674 -6.000000
v -1.500000 0.067674 6.000000
v 1.500000 0.067674 -6.000000
v 0.000000 0.067674 6.000000
v 4.500000 0.067674 6.000000
v 6.000000 0.067674 6.000000
v 0.000000 0.067674 -6.000000
v 1.500000 0.067674 6.000000
v -1.500000 0.067674 -6.000000
v 3.000000 0.067674 6.000000
v -4.500000 0.067674 -6.000000
v -6.000000 0.067674 -6.000000
v -3.000000 0.067674 -6.000000
v -6.000000 0.067674 -4.500000
v 6.000000 0.067674 4.500000
v 7.153610 0.251617 -1.788403
v -7.153610 0.251617 3.576805
v -7.153610 0.251617 7.153610
v 7.153610 0.251617 -7.153610
v 5.365208 0.251617 7.153610
v -5.365208 0.251617 -7.153610
v 7.153610 0.251617 -3.576805
v -7.153610 0.251617 5.365208
v 7.153610 0.251617 -5.365208
v -5.365208 0.251617 7.153610
v 5.365208 0.251617 -7.153610
v -3.576805 0.251617 7.153610
v 3.576805 0.251617 -7.153610
v -1.788403 0.251617 7.153610
v 1.788403 0.251617 -7.153610
v 0.000000 0.251617 7.153610
v 7.153610 0.251617 7.153610
v 0.000000 0.251617 -7.153610
v 1.788403 0.251617 7.153610
v -1.788403 0.251617 -7.153610
v 3.576805 0.251617 7.153610
v -7.153610 0.251617 -7.153610
v -3.576805 0.251617 -7.153610
v -7.153610 0.251617 -5.365208
v 7.153610 0.251617 5.365208
v -7.153610 0.251617 -3.576805
v 7.153610 0.251617 3.576805
v -7.153610 0.251617 -1.788403
v 7.153610 0.251617 1.788403
v -7.153610 0.251617 0.000000
v 7.153610 0.251617 0.000000
v -7.153610 0.251617 1.788403
v 5.474647 0.114056 -7.299530
v 3.649765 0.114056 -7.299530
v -3.649765 0.114055 7.299530
v -1.824882 0.114055 7.299530
v -7.299530 0.114055 5.474647
v -7.299530 0.114055 7.299530
v 1.824882 0.114056 -7.299530
v 0.000000 0.114055 7.299530
v 5.474647 0.114055 7.299530
v 7.299530 0.114055 7.299530
v 0.000000 0.114056 -7.299530
v 1.824882 0.114055 7.299530
v 7.299530 0.114055 -5.474647
v 7.299530 0.114056 -7.299530
v -1.824882 0.114056 -7.299530
v 3.649765 0.114055 7.299530
v -5.474647 0.114056 -7.299530
v -7.299530 0.114056 -7.299530
v -3.649765 0.114056 -7.299530
v -7.299530 0.114055 -5.474647
v 7.299530 0.114055 5.474647
v -7.299530 0.114055 -3.649765
v 7.299530 0.114055 3.649765
v -7.299530 0.114055 -1.824882
v 7.299530 0.114056 1.824882
v -7.299530 0.114055 0.000000
v 7.299530 0.114055 0.000000
v -7.299530 0.114056 1.824882
v 7.299530 0.114055 -1.824882
v -7.299530 0.114055 3.649765
v 7.299530 0.114055 -3.649765
v -5.474647 0.114055 7.299530
vn 0.0000 1.0000 0.0000
vn 1.0000 0.0000 0.0000
vn -1.0000 0.0000 0.0000
vn 0.0000 0.0000 -1.0000
vn 0.0000 0.0000 1.0000
vn 0.0000 -1.0000 -0.0000
usemtl Material.001
s off
f 81//1 25//1 4//1 26//1
f 39//1 46//1 31//1 32//1
f 53//1 60//1 29//1 30//1
f 67//1 74//1 27//1 28//1
f 1//1 12//1 33//1 11//1
f 10//1 34//1 35//1 9//1
f 8//1 36//1 37//1 7//1
f 6//1 38//1 39//1 5//1
f 33//1 40//1 41//1 34//1
f 35//1 42//1 43//1 36//1
f 37//1 44//1 45//1 38//1
f 13//1 14//1 47//1 40//1
f 41//1 48//1 49//1 42//1
f 43//1 50//1 51//1 44//1
f 45//1 52//1 53//1 46//1
f 47//1 54//1 55//1 48//1
f 49//1 56//1 57//1 50//1
f 51//1 58//1 59//1 52//1
f 15//1 16//1 61//1 54//1
f 55//1 62//1 63//1 56//1
f 57//1 64//1 65//1 58//1
f 59//1 66//1 67//1 60//1
f 61//1 68//1 69//1 62//1
f 63//1 70//1 71//1 64//1
f 65//1 72//1 73//1 66//1
f 17//1 18//1 75//1 68//1
f 69//1 76//1 77//1 70//1
f 71//1 78//1 79//1 72//1
f 73//1 80//1 81//1 74//1
f 75//1 19//1 20//1 76//1
f 77//1 21//1 22//1 78//1
f 79//1 23//1 24//1 80//1
usemtl Material_001
f 5//1 39//1 32//1 3//1
f 46//1 53//1 30//1 31//1
f 60//1 67//1 28//1 29//1
f 74//1 81//1 26//1 27//1
f 11//1 33//1 34//1 10//1
f 9//1 35//1 36//1 8//1
f 7//1 37//1 38//1 6//1
f 12//1 13//1 40//1 33//1
f 34//1 41//1 42//1 35//1
f 36//1 43//1 44//1 37//1
f 38//1 45//1 46//1 39//1
f 40//1 47//1 48//1 41//1
f 42//1 49//1 50//1 43//1
f 44//1 51//1 52//1 45//1
f 14//1 15//1 54//1 47//1
f 48//1 55//1 56//1 49//1
f 50//1 57//1 58//1 51//1
f 52//1 59//1 60//1 53//1
f 54//1 61//1 62//1 55//1
f 56//1 63//1 64//1 57//1
f 58//1 65//1 66//1 59//1
f 16//1 17//1 68//1 61//1
f 62//1 69//1 70//1 63//1
f 64//1 71//1 72//1 65//1
f 66//1 73//1 74//1 67//1
f 68//1 75//1 76//1 69//1
f 70//1 77//1 78//1 71//1
f 72//1 79//1 80//1 73//1
f 18//1 2//1 19//1 75//1
f 76//1 20//1 21//1 77//1
f 78//1 22//1 23//1 79//1
f 80//1 24//1 25//1 81//1
f 211//2 210//2 87//2 88//2
f 213//3 212//3 101//3 102//3
f 214//2 211//2 88//2 89//2
f 215//3 213//3 102//3 103//3
f 216//2 214//2 89//2 90//2
f 217//3 215//3 103//3 104//3
f 218//2 216//2 90//2 91//2
f 219//3 217//3 104//3 105//3
f 220//2 218//2 91//2 92//2
f 221//3 219//3 105//3 106//3
f 223//4 222//4 82//4 93//4
f 225//5 224//5 85//5 107//5
f 226//4 223//4 93//4 94//4
f 227//5 225//5 107//5 108//5
f 228//4 226//4 94//4 95//4
f 222//2 220//2 92//2 82//2
f 229//5 227//5 108//5 109//5
f 230//4 228//4 95//4 96//4
f 232//4 231//4 99//4 83//4
f 233//5 229//5 109//5 110//5
f 234//4 230//4 96//4 97//4
f 224//3 221//3 106//3 85//3
f 235//5 233//5 110//5 111//5
f 236//4 234//4 97//4 98//4
f 238//5 237//5 113//5 84//5
f 239//5 235//5 111//5 112//5
f 231//4 236//4 98//4 99//4
f 240//2 238//2 84//2 86//2
f 237//5 239//5 112//5 113//5
f 241//3 232//3 83//3 100//3
f 210//2 240//2 86//2 87//2
f 212//3 241//3 100//3 101//3
f 248//1 242//1 136//1 137//1
f 249//1 243//1 123//1 124//1
f 250//1 248//1 137//1 138//1
f 251//1 244//1 114//1 125//1
f 252//1 245//1 117//1 139//1
f 253//1 251//1 125//1 126//1
f 254//1 252//1 139//1 140//1
f 255//1 253//1 126//1 127//1
f 244//1 249//1 124//1 114//1
f 256//1 254//1 140//1 141//1
f 257//1 255//1 127//1 128//1
f 258//1 246//1 131//1 115//1
f 259//1 256//1 141//1 142//1
f 260//1 257//1 128//1 129//1
f 245//1 250//1 138//1 117//1
f 261//1 259//1 142//1 143//1
f 262//1 260//1 129//1 130//1
f 263//1 247//1 145//1 116//1
f 264//1 261//1 143//1 144//1
f 246//1 262//1 130//1 131//1
f 265//1 263//1 116//1 118//1
f 247//1 264//1 144//1 145//1
f 266//1 258//1 115//1 132//1
f 267//1 265//1 118//1 119//1
f 268//1 266//1 132//1 133//1
f 269//1 267//1 119//1 120//1
f 270//1 268//1 133//1 134//1
f 271//1 269//1 120//1 121//1
f 272//1 270//1 134//1 135//1
f 273//1 271//1 121//1 122//1
f 242//1 272//1 135//1 136//1
f 243//1 273//1 122//1 123//1
f 91//1 90//1 209//1 180//1
f 104//1 103//1 208//1 178//1
f 90//1 89//1 207//1 209//1
f 103//1 102//1 206//1 208//1
f 89//1 88//1 205//1 207//1
f 102//1 101//1 204//1 206//1
f 88//1 87//1 203//1 205//1
f 101//1 100//1 202//1 204//1
f 87//1 86//1 201//1 203//1
f 100//1 83//1 193//1 202//1
f 113//1 112//1 200//1 198//1
f 86//1 84//1 199//1 201//1
f 99//1 98//1 197//1 192//1
f 112//1 111//1 196//1 200//1
f 84//1 113//1 198//1 199//1
f 98//1 97//1 195//1 197//1
f 111//1 110//1 194//1 196//1
f 85//1 106//1 182//1 185//1
f 97//1 96//1 191//1 195//1
f 110//1 109//1 190//1 194//1
f 83//1 99//1 192//1 193//1
f 96//1 95//1 189//1 191//1
f 109//1 108//1 188//1 190//1
f 82//1 92//1 181//1 183//1
f 95//1 94//1 187//1 189//1
f 108//1 107//1 186//1 188//1
f 94//1 93//1 184//1 187//1
f 107//1 85//1 185//1 186//1
f 93//1 82//1 183//1 184//1
f 106//1 105//1 179//1 182//1
f 92//1 91//1 180//1 181//1
f 105//1 104//1 178//1 179//1
f 126//5 125//5 305//5 276//5
f 139//4 117//4 287//4 274//4
f 125//5 114//5 279//5 305//5
f 138//2 137//2 304//2 286//2
f 124//3 123//3 303//3 278//3
f 137//2 136//2 302//2 304//2
f 123//3 122//3 301//3 303//3
f 136//2 135//2 300//2 302//2
f 122//3 121//3 299//3 301//3
f 135//2 134//2 298//2 300//2
f 121//3 120//3 297//3 299//3
f 134//2 133//2 296//2 298//2
f 120//3 119//3 295//3 297//3
f 133//2 132//2 294//2 296//2
f 119//3 118//3 293//3 295//3
f 132//2 115//2 283//2 294//2
f 145//4 144//4 292//4 290//4
f 118//3 116//3 291//3 293//3
f 131//5 130//5 289//5 282//5
f 144//4 143//4 288//4 292//4
f 116//4 145//4 290//4 291//4
f 130//5 129//5 285//5 289//5
f 143//4 142//4 284//4 288//4
f 117//2 138//2 286//2 287//2
f 129//5 128//5 281//5 285//5
f 142//4 141//4 280//4 284//4
f 115//5 131//5 282//5 283//5
f 128//5 127//5 277//5 281//5
f 141//4 140//4 275//4 280//4
f 114//3 124//3 278//3 279//3
f 127//5 126//5 276//5 277//5
f 140//4 139//4 274//4 275//4
usemtl Material_002
f 275//4 274//4 171//4 172//4
f 277//5 276//5 158//5 159//5
f 279//3 278//3 156//3 146//3
f 280//4 275//4 172//4 173//4
f 281//5 277//5 159//5 160//5
f 283//5 282//5 163//5 147//5
f 284//4 280//4 173//4 174//4
f 285//5 281//5 160//5 161//5
f 287//2 286//2 170//2 149//2
f 288//4 284//4 174//4 175//4
f 289//5 285//5 161//5 162//5
f 291//4 290//4 177//4 148//4
f 292//4 288//4 175//4 176//4
f 282//5 289//5 162//5 163//5
f 293//3 291//3 148//3 150//3
f 290//4 292//4 176//4 177//4
f 294//2 283//2 147//2 164//2
f 295//3 293//3 150//3 151//3
f 296//2 294//2 164//2 165//2
f 297//3 295//3 151//3 152//3
f 298//2 296//2 165//2 166//2
f 299//3 297//3 152//3 153//3
f 300//2 298//2 166//2 167//2
f 301//3 299//3 153//3 154//3
f 302//2 300//2 167//2 168//2
f 303//3 301//3 154//3 155//3
f 304//2 302//2 168//2 169//2
f 278//3 303//3 155//3 156//3
f 286//2 304//2 169//2 170//2
f 305//5 279//5 146//5 157//5
f 274//4 287//4 149//4 171//4
f 276//5 305//5 157//5 158//5
f 156//6 155//6 154//6 153//6 152//6 151//6 150//6 148//6 177//6 176//6 175//6 174//6 173//6 172//6 171//6 149//6 170//6 169//6 168//6 167//6 166//6 165//6 164//6 147//6 163//6 162//6 161//6 160//6 159//6 158//6 157//6 146//6
f 20//3 19//3 241//3 212//3
f 6//2 5//2 240//2 210//2
f 19//3 2//3 232//3 241//3
f 32//5 31//5 239//5 237//5
f 5//2 3//2 238//2 240//2
f 18//4 17//4 236//4 231//4
f 31//5 30//5 235//5 239//5
f 3//5 32//5 237//5 238//5
f 17//4 16//4 234//4 236//4
f 30//5 29//5 233//5 235//5
f 4//3 25//3 221//3 224//3
f 16//4 15//4 230//4 234//4
f 29//5 28//5 229//5 233//5
f 2//4 18//4 231//4 232//4
f 15//4 14//4 228//4 230//4
f 28//5 27//5 227//5 229//5
f 1//2 11//2 220//2 222//2
f 14//4 13//4 226//4 228//4
f 27//5 26//5 225//5 227//5
f 13//4 12//4 223//4 226//4
f 26//5 4//5 224//5 225//5
f 12//4 1//4 222//4 223//4
f 25//3 24//3 219//3 221//3
f 11//2 10//2 218//2 220//2
f 24//3 23//3 217//3 219//3
f 10//2 9//2 216//2 218//2
f 23//3 22//3 215//3 217//3
f 9//2 8//2 214//2 216//2
f 22//3 21//3 213//3 215//3
f 8//2 7//2 211//2 214//2
f 21//3 20//3 212//3 213//3
f 7//2 6//2 210//2 211//2
f 180//1 209//1 273//1 243//1
f 178//1 208//1 272//1 242//1
f 209//1 207//1 271//1 273//1
f 208//1 206//1 270//1 272//1
f 207//1 205//1 269//1 271//1
f 206//1 204//1 268//1 270//1
f 205//1 203//1 267//1 269//1
f 204//1 202//1 266//1 268//1
f 203//1 201//1 265//1 267//1
f 202//1 193//1 258//1 266//1
f 198//1 200//1 264//1 247//1
f 201//1 199//1 263//1 265//1
f 192//1 197//1 262//1 246//1
f 200//1 196//1 261//1 264//1
f 199//1 198//1 247//1 263//1
f 197//1 195//1 260//1 262//1
f 196//1 194//1 259//1 261//1
f 185//1 182//1 250//1 245//1
f 195//1 191//1 257//1 260//1
f 194//1 190//1 256//1 259//1
f 193//1 192//1 246//1 258//1
f 191//1 189//1 255//1 257//1
f 190//1 188//1 254//1 256//1
f 183//1 181//1 249//1 244//1
f 189//1 187//1 253//1 255//1
f 188//1 186//1 252//1 254//1
f 187//1 184//1 251//1 253//1
f 186//1 185//1 245//1 252//1
f 184//1 183//1 244//1 251//1
f 182//1 179//1 248//1 250//1
f 181//1 180//1 243//1 249//1
f 179//1 178//1 242//1 248//1
